<svg width="599" height="599" viewBox="0 0 599 599" fill="none" xmlns="http://www.w3.org/2000/svg">
<path fill-rule="evenodd" clip-rule="evenodd" d="M411.681 21.8644C442.417 34.2149 470.182 51.287 494.341 72.0114L489.432 90.3303L479.622 87.7017L484.386 69.9235C484.573 69.2261 484.099 68.4862 483.323 68.2784L424.488 52.5135C424.457 52.5051 424.431 52.5067 424.408 52.5004C424.353 52.4857 424.296 52.4788 424.239 52.472C424.198 52.4693 424.157 52.4666 424.115 52.464C424.064 52.4671 424.015 52.4623 423.964 52.4654C423.92 52.4705 423.877 52.4757 423.834 52.4809C423.782 52.484 423.737 52.497 423.691 52.51C423.656 52.5172 423.618 52.5324 423.573 52.5454C423.525 52.5662 423.48 52.5792 423.44 52.6022C423.402 52.6173 423.371 52.6423 423.333 52.6574C423.293 52.6804 423.253 52.7033 423.212 52.7341C423.18 52.7591 423.146 52.792 423.114 52.817C423.082 52.8421 423.048 52.875 423.022 52.9099C422.988 52.9428 422.959 52.9856 422.933 53.0206C422.917 53.0499 422.895 53.0692 422.881 53.0906L414.404 67.1446L412.815 69.784L399.777 66.2905L411.685 21.8488L411.681 21.8644ZM514.845 91.3618C515.535 92.0759 516.233 92.7921 516.92 93.5218L497.467 110.866L494.646 110.11C494.63 110.106 494.615 110.102 494.597 110.105C494.581 110.101 494.566 110.097 494.55 110.093L514.842 91.3697L514.845 91.3618ZM518.835 95.5886C520.313 97.1856 521.764 98.792 523.21 100.414L507.606 113.583L500.726 111.739L518.843 95.5907L518.835 95.5886ZM525.084 102.512C525.925 103.476 526.745 104.46 527.577 105.43L515.075 115.576L510.914 114.461L525.084 102.512ZM529.402 107.582C530.978 109.474 532.521 111.391 534.048 113.311L526.914 118.748L518.428 116.474L529.404 107.574L529.402 107.582ZM535.773 115.521C537.197 117.355 538.594 119.19 539.976 121.055L525.299 131.609L528.024 121.439L535.781 115.523L535.773 115.521ZM541.634 123.297C545.082 128.042 548.385 132.891 551.539 137.825L521.193 157.021L518.663 156.343L524.149 135.869L541.634 123.297ZM553.026 140.172C554.021 141.757 555.011 143.358 555.976 144.96L531.317 159.733L524.853 158.001L553.026 140.172ZM557.386 147.345C558.276 148.851 559.145 150.369 560.013 151.895L541.432 162.444L535.046 160.733L557.394 147.347L557.386 147.345ZM562.893 157.101C563.377 157.986 563.852 158.878 564.327 159.769L562.211 167.667L553.911 171.91L555.103 167.459C555.29 166.762 554.817 166.022 554.041 165.814L551.479 165.127L552.012 163.137L559.838 158.785L562.887 157.091L562.893 157.101ZM566.299 163.598C566.562 164.122 566.835 164.64 567.095 165.172L565.684 165.894L566.299 163.598ZM568.325 167.634C570.422 171.908 572.409 176.245 574.303 180.615L560.016 187.049L564.725 169.474L568.325 167.634ZM575.39 183.14C576.697 186.253 577.957 189.387 579.161 192.54L578.876 193.606L570.347 197.039C570.347 197.039 570.347 197.039 570.337 197.045L561.517 200.594L555.764 202.915L559.1 190.465L575.382 183.138L575.39 183.14ZM580.489 196.045C581.459 198.665 582.372 201.303 583.266 203.953L570.831 208.489L557.856 205.013L562.781 203.024L571.601 199.475C571.601 199.475 571.601 199.475 571.609 199.477L580.27 195.986L580.481 196.043L580.489 196.045ZM584.118 206.541C584.775 208.539 585.405 210.547 586.014 212.566L575.405 209.723L584.118 206.541ZM586.901 215.525C587.027 215.962 587.152 216.406 587.276 216.851L566.935 223.376L550.246 218.904L571.105 211.292L586.901 215.525ZM588.013 219.459C588.587 221.519 589.14 223.59 589.666 225.671L582.88 227.649L571.769 224.671L588.013 219.459ZM590.322 228.299C590.511 229.097 590.701 229.895 590.89 230.693L585.005 232.316L585.723 229.636L590.314 228.297L590.322 228.299ZM591.518 233.331C592.103 235.914 592.647 238.521 593.166 241.129L590.33 251.714L581.017 253.687L579.411 253.256L584.21 235.345L591.526 233.333L591.518 233.331ZM594.395 247.731C594.571 248.736 594.739 249.738 594.907 250.741L593.509 251.038L594.395 247.731ZM595.62 255.29L595.786 256.393L593.085 256.912L586.739 255.211L591.547 254.19L595.622 255.282L595.62 255.29ZM596.352 260.516C599.302 283.074 599.674 306.192 597.27 329.49L497.793 302.835C498.015 291.163 497.214 279.611 495.419 268.289L504.121 235.812L535.211 244.142L580.695 256.33L592.746 259.559L596.342 260.522L596.352 260.516ZM596.89 333.008C596.182 339.159 595.288 345.318 594.19 351.482L584.208 348.807L585.495 344.004L588.504 332.776L596.892 333L596.89 333.008ZM581.403 348.056L565.309 343.743L582.262 344.851L581.403 348.056ZM552.264 340.248L529.808 334.231L584.546 336.326L582.959 342.25L552.264 340.248ZM518.298 331.147L517.224 330.859L573.621 332.374L579.634 332.533L581.402 332.578L585.52 332.691L585.249 333.701L518.3 331.139L518.298 331.147ZM506.247 327.918L496.093 325.197C496.129 324.904 496.165 324.612 496.204 324.311L510.041 328.019L506.255 327.92L506.247 327.918ZM496.524 321.676C496.768 319.575 496.97 317.471 497.145 315.376L548.145 329.042L539.775 328.814L521.33 328.323L496.524 321.676ZM497.363 312.714C497.527 310.314 497.641 307.917 497.726 305.53L589.642 330.159L587.331 330.102L573.557 329.729L559.432 329.353L497.361 312.722L497.363 312.714ZM494.224 261.528C492.859 254.494 491.122 247.562 489.015 240.758L490.29 240.293L494.127 238.886L498.187 237.396L500.963 236.376L494.222 261.535L494.224 261.528ZM488.191 238.161C487.702 236.661 487.198 235.157 486.674 233.665L490.779 232.01L498.959 234.202L492.952 236.405L491.547 236.918L488.195 238.145L488.191 238.161ZM485.75 231.099C484.948 228.919 484.119 226.749 483.242 224.599L491.752 220.765L489.375 229.635L485.752 231.091L485.75 231.099ZM482.19 222.067C481.869 221.292 481.528 220.529 481.196 219.76L493.613 213.849L492.675 217.351L482.198 222.069L482.19 222.067ZM480.08 217.252C479.053 215.003 477.991 212.762 476.887 210.551L529.938 182.492L544.723 186.453L523.958 196.35L520.607 197.946L513.772 201.204L510.249 202.88L502.267 206.687L501.008 207.281L495.087 210.104L490.36 212.356L489.503 212.765L484.217 215.287L480.087 217.254L480.08 217.252ZM475.629 208.098C473.1 203.213 470.367 198.433 467.449 193.78L498.487 174.064L526.021 181.442L475.629 208.098ZM465.949 191.446C464.077 188.56 462.134 185.721 460.119 182.931L479.62 169.009L494.836 173.086L465.949 191.446ZM458.462 180.681C457.492 179.38 456.511 178.092 455.509 176.816L480.344 157.874L477.966 166.752L458.464 180.673L458.462 180.681ZM453.761 174.626C451.807 172.205 449.798 169.828 447.728 167.493L448.379 166.945L449.13 166.306L461.02 156.249C461.042 156.229 461.064 156.21 461.08 156.181C461.124 156.142 461.158 156.109 461.194 156.069C461.22 156.034 461.247 155.999 461.265 155.962C461.291 155.927 461.317 155.892 461.336 155.855C461.356 155.81 461.378 155.757 461.391 155.71C461.399 155.679 461.414 155.657 461.42 155.634L462.711 150.815L488.121 128.819L481.523 153.445L453.753 174.624L453.761 174.626ZM445.835 165.407C442.958 162.259 439.976 159.192 436.883 156.222L441.593 151.682L457.139 155.847L453.512 158.915L452.598 159.694L447.278 164.189L446.845 164.552L445.833 165.414L445.835 165.407ZM434.816 154.283C432.505 152.127 430.148 150.017 427.733 147.968L438.405 150.827L434.816 154.283ZM422.78 143.92C417.078 139.402 411.115 135.176 404.88 131.271L425.203 55.4259L481.241 70.4412L459.112 153.025L458.957 153.605L422.782 143.912L422.78 143.92ZM402.303 129.699L402.274 129.683L402.326 129.613L402.303 129.699ZM399.796 128.213C397.668 126.971 395.506 125.762 393.324 124.598L397.565 108.77L415.654 79.8746L404.428 121.77L399.794 128.221L399.796 128.213ZM390.699 123.206C390.153 122.925 389.605 122.652 389.056 122.379L392.32 117.157L390.699 123.206ZM386.463 121.088C386.151 120.937 385.828 120.792 385.516 120.641L390.564 112.269L396.082 103.116L394.862 107.668L386.463 121.088ZM382.893 119.401C380.419 118.259 377.922 117.17 375.388 116.13L377.116 109.682L387.137 112.367L385.809 114.564L385.188 115.598L385.186 115.606C385.186 115.606 385.186 115.606 385.184 115.614L382.902 119.395L382.893 119.401ZM580.875 401.114C580.429 402.339 579.972 403.543 579.513 404.755L552.019 397.388L544.659 393.703C544.643 393.699 544.627 393.695 544.614 393.682L537.447 390.091C537.361 390.034 537.264 389.991 537.166 389.949L534.694 388.707L580.671 401.026L580.867 401.112L580.875 401.114ZM578.592 407.221C578.48 407.51 578.364 407.79 578.253 408.079L567.753 405.266L563.697 403.23L578.599 407.223L578.592 407.221ZM577.267 410.536C576.492 412.486 575.688 414.421 574.871 416.343L570.145 413.859L567.194 412.304L568.311 408.136L577.267 410.536ZM573.83 418.785C573.521 419.5 573.204 420.213 572.887 420.926L556.864 416.633L532.076 402.71L554.955 408.84L556.971 409.901L564.868 414.058L568.812 416.139L573.75 418.739L573.838 418.787L573.83 418.785ZM571.782 423.359C566.512 434.939 560.55 446.064 553.967 456.687L545.755 454.486L545.747 454.484L459.591 431.399L466.322 406.279C468.346 403.143 470.289 399.935 472.14 396.66L505.534 405.608L505.542 405.61L505.55 405.612L555.978 419.125C555.978 419.125 555.978 419.124 555.986 419.127C555.986 419.127 555.986 419.127 555.994 419.129L571.79 423.361L571.782 423.359ZM550.971 461.443C550.181 462.668 549.379 463.872 548.578 465.076L534.09 454.082L536.323 454.68L544.793 456.949L550.973 461.435L550.971 461.443ZM547.084 467.296C546.116 468.717 545.148 470.137 544.158 471.543L516.208 449.298L527.256 452.259L547.084 467.296ZM542.595 473.71C541.7 474.949 540.804 476.195 539.896 477.421L536.471 476.504L498.328 444.507L501.297 445.303L509.736 447.564L542.602 473.712L542.595 473.71ZM538.183 479.675C527.868 493.287 516.46 505.9 504.118 517.424L515.837 473.687L535.441 478.94C535.441 478.94 535.441 478.94 535.449 478.942L538.183 479.675ZM500.131 521.083C499.058 522.047 497.987 523.003 496.911 523.949L479.767 503.215L481.906 495.231L483.554 489.08L502.988 510.42L500.129 521.091L500.131 521.083ZM494.846 525.731C491.662 528.463 488.427 531.132 485.139 533.719L460.181 500.621L477.701 505.315C477.803 505.342 477.907 505.362 478.007 505.363L494.838 525.728L494.846 525.731ZM477.694 539.408C476.981 539.939 476.258 540.476 475.531 540.995L454.281 535.302L456.836 525.766L456.918 525.46L470.168 529.011L473.519 533.646L477.552 539.219L477.686 539.406L477.694 539.408ZM472.758 542.973C469.877 545.015 466.969 546.998 464.024 548.93L451.527 545.581L453.601 537.84L472.758 542.973ZM461.062 550.866C456.775 553.605 452.416 556.241 447.996 558.76L450.164 550.667L450.845 548.128L461.062 550.866ZM444.464 560.753C443.508 561.278 442.537 561.799 441.584 562.316L420.068 556.551L388.351 548.053C388.351 548.053 388.351 548.053 388.343 548.051L372.093 543.696L374.73 533.855L384.885 536.576C385.66 536.784 386.438 536.388 386.627 535.683L390.37 521.712L422.589 530.345C422.675 530.368 422.764 530.384 422.854 530.391C422.887 530.392 422.921 530.392 422.954 530.393C423.013 530.392 423.063 530.396 423.124 530.388C423.159 530.38 423.195 530.373 423.238 530.368C423.291 530.357 423.335 530.352 423.388 530.341C423.424 530.334 423.461 530.319 423.507 530.306C423.534 530.296 423.562 530.287 423.59 530.277C423.608 530.274 423.62 530.26 423.637 530.257C423.685 530.236 423.725 530.213 423.765 530.19C423.804 530.167 423.836 530.142 423.866 530.125C423.906 530.102 423.932 530.067 423.972 530.044C424.006 530.011 424.037 529.986 424.064 529.951C424.098 529.918 424.116 529.881 424.142 529.846C424.168 529.811 424.194 529.776 424.213 529.739C424.231 529.702 424.25 529.665 424.268 529.628C424.288 529.583 424.299 529.544 424.319 529.499C424.323 529.483 424.335 529.469 424.34 529.454L428.337 514.535L454.953 521.667L444.479 560.757L444.464 560.753ZM438.193 564.129C429.592 568.618 420.767 572.686 411.763 576.328L416.583 558.338L438.193 564.129ZM408.395 577.676C406.042 578.591 403.682 579.47 401.31 580.33L400.393 577.925L400.332 577.775L406.282 555.57L413.78 557.579L408.397 577.669L408.395 577.676ZM398.656 581.273L398.404 581.365L394.267 580.256L383.181 549.388L386.888 550.381L388.751 555.273L390.566 560.034L397.484 578.187L397.682 578.702L398.669 581.285L398.656 581.273ZM393.932 582.887C374.101 589.482 353.5 594.031 332.439 596.349L331.044 595.975L332.994 588.696L332.997 588.688L338.527 568.05L350.781 571.333C350.781 571.333 350.781 571.333 350.789 571.336L362.338 574.43C362.338 574.43 362.338 574.43 362.346 574.432L393.93 582.895L393.932 582.887ZM306.081 598.062C290.214 598.387 274.162 597.428 258.064 595.139L269.972 550.697L315.503 562.897L306.081 598.062ZM259.926 547.039L268.599 514.672L268.48 518.377L259.626 551.418L259.776 549.199L259.926 547.039ZM271.889 502.394L272.193 501.258L272.151 503.64L272.007 511.042L271.94 514.425L271.88 517.625L271.877 517.859L271.391 517.729L271.525 513.751L271.527 513.743L271.691 508.9L271.693 508.892C271.693 508.892 271.693 508.892 271.695 508.884L271.846 504.247C271.846 504.247 271.848 504.239 271.84 504.237C271.84 504.237 271.842 504.229 271.844 504.221L271.847 504.18L271.902 502.406L271.889 502.394ZM275.196 495.537C277.324 495.805 279.443 496.045 281.565 496.245L274.674 521.96L274.712 519.719L274.708 519.702L274.77 516.527L274.876 511.24L274.905 509.753L274.998 505.083L275.049 502.636L275.191 495.553L275.196 495.537ZM284.504 496.495C289.118 496.858 293.715 497.065 298.289 497.106L299.719 512.832C299.722 512.85 299.726 512.868 299.728 512.893C299.735 512.929 299.736 512.954 299.746 512.982C299.757 513.036 299.77 513.081 299.788 513.136C299.798 513.164 299.809 513.184 299.819 513.212C299.843 513.277 299.877 513.337 299.912 513.396C299.918 513.406 299.923 513.416 299.937 513.428C299.977 513.498 300.027 513.561 300.085 513.627C300.099 513.639 300.12 513.654 300.139 513.676C300.178 513.719 300.227 513.758 300.275 513.796C300.302 513.82 300.324 513.834 300.353 513.85C300.404 513.881 300.454 513.911 300.505 513.941C300.526 513.956 300.548 513.97 300.579 513.978C300.661 514.017 300.745 514.048 300.831 514.071L300.839 514.073L343.565 525.521L337.101 549.646L326.868 546.904L274.763 532.943L284.524 496.517L284.504 496.495ZM301.18 497.1C302.079 497.097 302.972 497.085 303.876 497.066L301.863 504.58L301.18 497.1ZM306.896 496.985C324.3 496.375 341.35 493.453 357.655 488.45L393.682 498.103L384.157 533.652L346.649 523.602L302.905 511.88L306.896 496.985ZM362.3 486.973C363.766 486.484 365.231 485.97 366.68 485.451L367.894 488.472L362.292 486.971L362.3 486.973ZM369.317 484.478C374.426 482.555 379.446 480.432 384.369 478.107L386.801 483.008L392.842 495.157L371.279 489.379L369.309 484.476L369.317 484.478ZM386.876 476.897C388.519 476.095 390.158 475.274 391.79 474.418L393.238 477.099L395.171 480.665C395.171 480.665 395.171 480.665 395.177 480.675L395.215 480.752C395.215 480.752 395.221 480.762 395.227 480.772L395.822 481.872L388.363 479.874L386.884 476.899L386.876 476.897ZM394.232 473.107C395.038 472.668 395.837 472.227 396.627 471.784L399.097 476.107L398.022 480.119L397.741 479.599C397.741 479.599 397.741 479.599 397.734 479.597L395.8 476.03C395.8 476.03 395.8 476.03 395.802 476.022L394.224 473.105L394.232 473.107ZM399.043 470.416C399.858 469.946 400.677 469.459 401.488 468.971L400.444 472.866L399.815 471.765L399.043 470.416ZM405.084 466.769C406.609 465.809 408.121 464.837 409.624 463.837L405.045 480.926L402.491 476.446L405.084 466.769ZM413.294 461.327C420.888 456.022 428.121 450.184 434.928 443.836L488.811 458.274L476.989 502.395L407.294 483.72L413.296 461.319L413.294 461.327ZM437.175 441.718C437.819 441.101 438.449 440.472 439.085 439.853L482.03 451.36L485.675 454.713L437.175 441.718ZM441.225 437.697C443.836 435.037 446.385 432.294 448.852 429.479L454.556 431.007L456.845 433.182C456.859 433.194 456.873 433.206 456.888 433.211C456.956 433.271 457.032 433.333 457.112 433.38C457.141 433.396 457.17 433.412 457.191 433.426C457.287 433.477 457.393 433.522 457.51 433.554L464.86 435.523L477.863 447.514L441.217 437.695L441.225 437.697ZM452.431 425.273C455.536 421.52 458.514 417.648 461.357 413.649L457.064 429.672L452.431 425.273ZM473.459 394.276C474.61 392.174 475.719 390.044 476.8 387.89L477.442 388.062L497.733 400.78L473.459 394.276ZM478.067 385.324C478.956 383.48 479.815 381.619 480.648 379.734L490.466 382.365L512.472 394.728L478.585 385.648L478.067 385.324ZM482.706 374.97C482.751 374.864 482.798 374.751 482.843 374.645L497.471 378.565L500.908 380.376L502.681 381.313L507.221 383.705L508.893 384.581L491.53 379.929L482.706 374.97ZM509.028 381.662L520.875 384.836L520.155 387.524L515.076 384.853L509.018 381.667L509.028 381.662ZM142.378 553.291L142.084 553.103L142.096 553.056L149.054 543.793L149.321 543.864L147.881 545.822L142.573 553.032L142.388 553.285L142.378 553.291ZM139.51 551.489C120.125 539.182 102.432 524.792 86.6464 508.705L117.596 516.998C117.596 516.998 117.596 516.998 117.604 517L133.008 521.127L128.754 537.002C128.567 537.699 129.041 538.439 129.817 538.647L142.071 541.93L139.51 551.489ZM83.0877 505.03C82.0534 503.939 81.0389 502.835 80.0245 501.732L80.5015 501.331L84.3986 498.101L100.5 502.415L94.3549 508.049L83.0877 505.03ZM63.1215 481.667C62.5998 480.981 62.0681 480.301 61.5485 479.608L61.5695 479.53L64.8525 480.409L63.1136 481.665L63.1215 481.667ZM58.5139 475.545C57.0329 473.519 55.5859 471.46 54.1566 469.397L54.4149 468.434L60.0171 469.935L58.5139 475.545ZM51.0286 464.805C41.0471 449.811 32.4482 433.92 25.3027 417.367L29.7976 400.592L90.0353 416.733L75.4063 471.329L68.7071 469.534L51.0307 464.798L51.0286 464.805ZM23.467 413.029C22.6824 411.131 21.9155 409.229 21.1706 407.308L25.4447 405.649L23.467 413.029ZM20.1981 404.763C19.4012 402.66 18.6319 400.548 17.8805 398.432L26.7422 400.806L26.3181 402.389L20.1981 404.763ZM16.8291 395.429C16.1522 393.442 15.4931 391.452 14.8596 389.46L35.4585 394.979L28.1358 397.737C28.1159 397.748 28.096 397.76 28.0683 397.769C28.0207 397.79 27.9732 397.811 27.9334 397.834C27.8937 397.857 27.8618 397.882 27.8242 397.897C27.7844 397.92 27.7504 397.953 27.7185 397.978C27.7065 397.991 27.6866 398.003 27.6746 398.016C27.6746 398.016 27.6646 398.022 27.6625 398.03C27.6505 398.043 27.6385 398.057 27.6264 398.071C27.6003 398.105 27.5663 398.138 27.5401 398.173C27.5281 398.187 27.516 398.2 27.5019 398.222C27.4977 398.238 27.4878 398.243 27.4836 398.259C27.4815 398.267 27.4794 398.275 27.4673 398.288L16.8192 395.435L16.8291 395.429ZM13.602 385.377C2.586 348.952 -1.55967 310.11 2.23705 270.742L42.91 281.64L15.0124 385.755L13.6099 385.379L13.602 385.377ZM2.49417 268.09C2.54599 267.583 2.58997 267.074 2.64962 266.569L50.5389 279.401L44.7812 279.42L2.49417 268.09ZM2.96941 263.934L3.01744 263.536L9.9101 263.888L29.4517 264.891L83.1939 279.291L77.269 279.308L77.2612 279.306L60.5765 279.362L2.97152 263.926L2.96941 263.934ZM83.4999 267.65L103.621 273.041C103.564 273.471 103.514 273.911 103.457 274.341L77.2875 267.329L80.435 267.492L83.4999 267.65ZM103.128 276.982C103.044 277.732 102.971 278.477 102.897 279.221L93.2315 279.252L42.0044 265.525L47.9848 265.835L64.7269 266.693L103.128 276.982ZM102.632 281.871C101.038 299.919 101.959 317.793 105.157 335.068L105.056 335.444L91.4073 338.681L91.3974 338.687L86.5732 339.83C85.9904 339.968 85.6089 340.42 85.5608 340.944L84.9078 343.381C84.8832 343.442 84.8607 343.494 84.8439 343.557C84.8271 343.62 84.8202 343.677 84.8113 343.741L79.0104 365.39L71.1952 367.949L94.2535 281.894L102.626 281.861L102.632 281.871ZM105.735 338.053C106.437 341.541 107.239 345.006 108.124 348.443L88.0026 343.051L88.2272 342.213L92.2533 341.26L92.2633 341.254C92.2711 341.256 92.2732 341.248 92.281 341.25L92.3087 341.241C92.3166 341.243 92.3265 341.237 92.3265 341.237L105.725 338.058L105.735 338.053ZM110.348 356.345C113.153 365.62 116.635 374.657 120.747 383.384L120.327 384.951L114.557 387.68L113.732 388.063L107.682 390.927L106.855 391.318L101.401 393.904L100.121 394.511L110.352 356.329L110.348 356.345ZM122.481 386.973C122.797 387.612 123.115 388.243 123.44 388.876L121.569 389.811L118.325 388.941L122.288 387.064L122.481 386.973ZM125.99 393.716C126.299 394.286 126.616 394.858 126.933 395.43L126.059 395.901C126.049 395.907 126.049 395.907 126.039 395.913L126.029 395.918L125.285 396.315C125.285 396.315 125.285 396.315 125.283 396.323C125.283 396.323 125.283 396.323 125.275 396.321L119.449 399.446C119.449 399.446 119.449 399.446 119.441 399.444L119.431 399.45L119.187 399.577L111.995 397.65L122.027 392.646L125.992 393.708L125.99 393.716ZM128.288 397.834C128.649 398.459 129.02 399.08 129.382 399.705L128.552 402.8L118.984 408.298L120.695 401.913L120.891 401.806C120.949 401.779 120.998 401.751 121.056 401.724L126.742 398.679C126.79 398.658 126.83 398.635 126.872 398.605L127.569 398.229L128.276 397.847L128.288 397.834ZM134.75 408.316C135.349 409.215 135.958 410.109 136.566 411.003L133.323 423.108L124.5 429.142L130.459 406.906C130.654 407.117 130.903 407.285 131.216 407.369L134.758 408.318L134.75 408.316ZM138.739 414.113C139.587 415.306 140.447 416.485 141.318 417.651L137.001 420.6L138.739 414.113ZM143.007 419.875C143.132 420.034 143.255 420.202 143.38 420.361L142.431 423.903L137.713 427.283L137.163 427.673L134.606 429.507L135.887 424.727L143.001 419.865L143.007 419.875ZM146.561 424.38C147.965 426.099 149.4 427.794 150.867 429.464L124.672 449.847L114.783 447.197L115.158 446.928L120.462 443.117L121.233 442.56L126.909 438.488L131.496 435.19L133.097 434.041L133.255 433.923L139.256 429.611L139.557 429.397L144.641 425.746L145.243 425.32L146.563 424.372L146.561 424.38ZM152.731 431.567C153.662 432.606 154.618 433.643 155.571 434.663L134.105 452.374L128.072 450.758L152.731 431.567ZM157.508 436.71C157.872 437.076 158.234 437.45 158.59 437.814L154.659 441.17C154.637 441.189 154.621 441.219 154.599 441.238C154.565 441.271 154.529 441.311 154.495 441.344C154.469 441.379 154.442 441.414 154.424 441.451C154.398 441.486 154.38 441.523 154.361 441.56C154.347 441.582 154.339 441.613 154.325 441.635L134.818 458.335L135.821 454.589L157.503 436.7L157.508 436.71ZM160.581 439.817C161.663 440.888 162.757 441.946 163.86 442.997L158.532 441.57L160.581 439.817ZM168.032 446.828C178.52 456.205 190.081 464.518 202.595 471.566L181.628 549.817L131.897 536.492L154.966 450.398L156.734 443.8L168.032 446.828ZM205.211 473.023C206.186 473.553 207.171 474.077 208.168 474.588L192.865 531.699L186.763 541.871L205.211 473.023ZM210.803 475.94C212.07 476.574 213.348 477.193 214.634 477.815L206.125 509.571L199.655 520.367L198.289 522.646L210.801 475.948L210.803 475.94ZM217.299 479.058C218.481 479.601 219.66 480.119 220.848 480.639L218.734 488.529L212.598 498.768L211.551 500.511L217.299 479.058ZM21.3728 190.362C22.4793 187.518 23.6385 184.696 24.8326 181.901L90.6793 216.567L56.7839 207.484L21.3728 190.362ZM25.8733 179.459C27.6107 175.482 29.4202 171.549 31.3132 167.681L55.0707 181.597L54.0798 185.295C54.0735 185.318 54.075 185.344 54.0687 185.368C54.0561 185.415 54.0534 185.456 54.0487 185.505C54.046 185.546 54.0434 185.588 54.0485 185.631C54.0537 185.674 54.051 185.716 54.0562 185.759C54.0614 185.802 54.0666 185.846 54.0817 185.883C54.0868 185.927 54.1019 185.964 54.1171 186.002C54.1322 186.04 54.1452 186.085 54.1681 186.125C54.1796 186.145 54.1911 186.165 54.1926 186.19C54.1926 186.19 54.1926 186.19 54.2004 186.192C54.2119 186.212 54.2176 186.222 54.2312 186.234C54.2542 186.274 54.2771 186.314 54.3021 186.345C54.3251 186.385 54.358 186.419 54.383 186.451C54.4159 186.485 54.4488 186.519 54.4816 186.553C54.5166 186.579 54.5495 186.613 54.5845 186.639C54.6273 186.668 54.6701 186.696 54.7129 186.724C54.7343 186.738 54.7557 186.753 54.7829 186.777L94.092 209.033L96.9493 210.655L98.6333 211.61L117.438 222.259C117.254 222.696 117.061 223.132 116.875 223.577L102.238 219.656L25.8754 179.451L25.8733 179.459ZM32.4808 165.298C34.7655 160.721 37.163 156.224 39.6654 151.805L59.5431 164.874L56.6543 175.655L55.7746 178.938L32.4829 165.291L32.4808 165.298ZM40.9755 149.486C45.7058 141.297 50.7915 133.38 56.2244 125.766L67.6108 134.797L61.1255 159L60.2732 162.181L40.9812 149.496L40.9755 149.486ZM57.7898 123.591C60.4528 119.921 63.1915 116.313 66.0095 112.785L72.0811 118.082L70.9432 122.329L68.3566 131.982L57.7877 123.599L57.7898 123.591ZM67.6898 110.682C69.9201 107.938 72.2025 105.249 74.5178 102.594L75.8853 103.884L72.8537 115.198L67.682 110.68L67.6898 110.682ZM81.2385 95.1573C82.062 94.2778 82.8933 93.4005 83.7226 92.5309L107.228 98.8293L121.285 102.596L117.802 115.594L106.318 158.453C106.129 159.159 106.605 159.891 107.38 160.099L135.391 167.604L147.998 170.982L147.568 172.588C139.69 182.058 132.644 192.339 126.571 203.342L57.2213 184.759L81.2349 95.1395L81.2385 95.1573ZM85.8131 90.3702C87.1566 88.9918 88.5116 87.6333 89.8822 86.279L106.54 90.7425L112.539 97.5314L90.0677 91.5102L85.821 90.3723L85.8131 90.3702ZM92.0746 84.1456C93.6267 82.6468 95.1982 81.1699 96.7832 79.7051L103.381 87.1751L92.0746 84.1456ZM98.772 77.8614C101.134 75.723 103.534 73.6285 105.95 71.5716L106.368 72.0784C106.376 72.0805 106.382 72.0904 106.382 72.0904L112.99 80.1174C112.99 80.1174 112.997 80.1195 112.995 80.1274L119.451 87.9708C119.451 87.9708 119.451 87.9708 119.457 87.9808L119.507 88.0446C119.507 88.0446 119.513 88.0545 119.521 88.0566L123.157 92.4742L108.113 88.4432L98.7563 77.8572L98.772 77.8614ZM108.028 69.8022C111.382 66.9977 114.801 64.269 118.275 61.614L123.602 68.7183L123.226 70.1208C123.222 70.1365 123.218 70.1522 123.214 70.1678C123.209 70.1835 123.205 70.1992 123.199 70.2227C123.191 70.254 123.2 70.2817 123.192 70.3131C123.189 70.3544 123.186 70.3956 123.184 70.4369C123.179 70.4526 123.175 70.4683 123.181 70.4782C123.18 70.5116 123.19 70.5393 123.191 70.5649C123.196 70.6083 123.202 70.6517 123.207 70.6951C123.21 70.7128 123.208 70.7207 123.212 70.7384C123.221 70.7661 123.231 70.7938 123.24 70.8216C123.255 70.8592 123.268 70.9047 123.283 70.9423C123.289 70.9522 123.293 70.97 123.306 70.982C123.31 70.9998 123.323 71.0118 123.329 71.0218C123.335 71.0317 123.341 71.0417 123.346 71.0516C123.369 71.0913 123.39 71.1389 123.423 71.1729C123.435 71.1928 123.44 71.2027 123.446 71.2126L123.781 71.6551L129.55 79.2725L126.176 91.8638L121.735 86.4666C121.735 86.4666 121.735 86.4666 121.727 86.4645C121.727 86.4645 121.727 86.4645 121.73 86.4567L115.274 78.6132L115.255 78.5913C115.235 78.5693 115.224 78.5494 115.204 78.5275L108.654 70.5663C108.654 70.5663 108.646 70.5642 108.649 70.5564C108.641 70.5543 108.635 70.5444 108.629 70.5344L108.598 70.4926C108.591 70.4905 108.593 70.4827 108.585 70.4806L108.033 69.8121L108.028 69.8022ZM120.469 59.9765C122.717 58.2946 124.982 56.6424 127.272 55.0222L125.626 61.1651L124.505 65.3491L120.471 59.9686L120.469 59.9765ZM130.955 52.4653C146.328 41.947 162.651 32.8674 179.709 25.3703L201.24 31.1397L194.01 58.1244L175.448 53.1508C174.672 52.9429 173.894 53.3391 173.705 54.0443L167.325 77.8557L166.645 80.3943L126.364 69.601L130.953 52.4731L130.955 52.4653ZM183.609 23.6946C186.8 22.3493 190.019 21.0536 193.257 19.8134L224.097 28.0768L226.973 36.7416L229.217 43.5067L207.521 37.6933L204.324 29.8496L204.318 29.8397C204.306 29.8198 204.295 29.7999 204.286 29.7722C204.259 29.7147 204.232 29.6572 204.196 29.6054C204.184 29.5855 204.173 29.5657 204.151 29.5515C204.14 29.5317 204.126 29.5196 204.115 29.4998C204.082 29.4658 204.059 29.426 204.026 29.392C203.993 29.358 203.958 29.3319 203.926 29.2979C203.891 29.2717 203.858 29.2377 203.823 29.2115C203.78 29.1832 203.743 29.1649 203.7 29.1366C203.663 29.1183 203.628 29.0921 203.583 29.0717C203.525 29.0392 203.454 29.0203 203.391 29.0036C203.368 28.9973 203.346 28.9831 203.323 28.9768L203.307 28.9726L183.609 23.6946ZM197.479 18.2237C207.663 14.503 218.06 11.3349 228.643 8.72866L224.182 25.3786L197.479 18.2237ZM231.845 7.96596C234.678 7.29739 237.526 6.66646 240.379 6.07891L231.169 40.4523L229.717 36.0912L226.721 27.0584L231.835 7.97169L231.845 7.96596ZM246.161 4.96607C272.911 0.0660243 300.596 -1.20766 328.536 1.51728L318.387 39.393L271.446 26.8152L242.393 19.0304L246.161 4.96607ZM329.778 88.4906L325.926 102.868C324.921 102.733 323.911 102.614 322.902 102.495L320.898 41.2416L330.423 5.6929L329.778 88.4906ZM320.013 102.183C317.946 101.965 315.887 101.783 313.828 101.634L309.462 39.7309L318.042 42.0298L320.013 102.183ZM310.936 101.455C310.274 101.421 309.613 101.378 308.951 101.343L307.882 89.5685C307.878 89.5507 307.875 89.533 307.869 89.523C307.866 89.4718 307.853 89.4263 307.842 89.373C307.835 89.3375 307.822 89.292 307.806 89.2544C307.793 89.2089 307.771 89.1692 307.755 89.1315C307.732 89.0918 307.717 89.0541 307.694 89.0144C307.671 88.9747 307.646 88.9428 307.623 88.903C307.601 88.8633 307.568 88.8293 307.543 88.7974C307.51 88.7634 307.477 88.7294 307.442 88.7032C307.409 88.6692 307.374 88.643 307.339 88.6169C307.304 88.5907 307.261 88.5624 307.226 88.5363C307.183 88.508 307.149 88.4818 307.104 88.4614C307.067 88.4431 307.022 88.4226 306.982 88.4121C306.93 88.3896 306.885 88.3692 306.83 88.3545C306.814 88.3503 306.799 88.3461 306.783 88.3419L297.357 85.8162L290.665 34.6943L306.524 38.9436L310.936 101.455ZM306.058 101.232C305.651 101.215 305.25 101.208 304.843 101.191L305.748 97.8144L306.058 101.232ZM301.849 101.145C277.657 100.886 254.004 105.104 231.917 113.193L165.623 95.4297L176.168 56.073L239.759 73.1122L255.837 77.4203L265.365 79.9733L280.957 84.1512L295.687 88.0982L304.682 90.5083L301.833 101.141L301.849 101.145ZM227.711 114.787C222.727 116.744 217.825 118.898 213.022 121.248L206.501 109.104L227.711 114.787ZM210.532 122.487C207.172 124.181 203.869 125.975 200.611 127.857L185.721 103.536L202.818 108.117L210.524 122.485L210.532 122.487ZM195.816 130.737C194.176 131.751 192.547 132.784 190.938 133.839L187.292 128.453L195.824 130.74L195.816 130.737ZM188.653 135.377C187.616 136.081 186.585 136.796 185.559 137.521L174.95 134.678L171.191 129.715L166.921 124.087L165.874 122.698L165.732 122.508L165.023 121.579L164.731 121.199L182.211 125.883L185.778 131.155L188.643 135.382L188.653 135.377ZM182.802 139.503C181.904 140.161 181.011 140.828 180.116 141.504L179.137 140.209L177.537 138.092L182.802 139.503ZM177.95 143.166C176.249 144.499 174.567 145.854 172.919 147.243L175.041 139.321L177.871 143.052L177.957 143.168L177.95 143.166ZM170.104 149.629C169.359 150.278 168.604 150.932 167.865 151.591L167.796 151.505L164.988 148.258L170.104 149.629ZM165.847 153.418C164.087 155.037 162.361 156.683 160.658 158.368L147.735 144.542L150.212 135.297L154.761 140.572L160.009 146.655L165.066 152.512L165.849 153.41L165.847 153.418ZM158.743 160.282C155.94 163.125 153.221 166.066 150.582 169.08L150.561 169.066C150.518 169.037 150.481 169.019 150.438 168.991C150.393 168.97 150.358 168.944 150.314 168.924C150.261 168.901 150.216 168.881 150.161 168.866C150.13 168.858 150.1 168.841 150.077 168.835L141.811 166.62L146.902 147.62L158.737 160.272L158.743 160.282ZM125.282 205.742C123.762 208.593 122.306 211.487 120.921 214.433L98.1826 208.34L95.4909 206.821L88.1701 202.676L77.7795 196.793L67.0986 190.74L65.1457 189.629L125.282 205.742ZM119.794 216.852C119.344 217.84 118.895 218.828 118.461 219.82L116.368 218.638L107.304 213.505L119.786 216.85L119.794 216.852ZM211.381 47.201L212.331 49.5467L214.542 54.9929L234.812 60.4242L232.817 54.4228L230.197 46.5239L208.752 40.7776L211.369 47.2146L211.381 47.201ZM235.589 53.763L236.781 57.3662L243.055 33.9544L240.72 25.4935L240.631 25.1674L239.438 20.8421L232.842 45.4606L235.585 53.7453C235.585 53.7453 235.583 53.7531 235.591 53.7552L235.589 53.763ZM213.424 59.665L212.122 56.4693L212.116 56.4594L208.806 48.3166L205.704 40.6831L203.277 34.7255L196.805 58.8817L215.1 63.7839L213.439 59.7026L213.418 59.6551L213.424 59.665ZM272.916 29.9468L282.57 81.8624L294.362 85.0221L287.67 33.9001L272.908 29.9447L272.916 29.9468ZM216.143 58.8902L218.108 63.7165L218.503 64.6873L237.973 69.9044L235.82 63.3986L215.801 58.0345L216.145 58.8824L216.143 58.8902ZM242.648 21.8366L243.515 24.966L245.941 33.7451L248.341 42.4333L250.624 50.7123L252.792 58.5741L254.852 66.0209L256.796 73.0584L257.366 75.1006L263.799 76.8242L251.003 24.0668L242.651 21.8288L242.648 21.8366ZM238.446 62.3724L240.947 69.9033C240.947 69.9033 240.947 69.9033 240.944 69.9111L241.239 70.7877L242.343 71.0838L247.745 50.9236L244.583 39.4698L238.446 62.3724ZM272.125 79.0638L279.522 81.0457L269.868 29.1302L254.135 24.9144L266.931 77.6719L272.125 79.0638ZM245.148 71.8354L254.19 74.2581L249.274 56.439L245.148 71.8354ZM168.385 130.534L163.684 124.32L160.129 119.63L156.358 114.647L154.751 112.529L151.915 123.114L156.837 129.094C156.87 129.128 156.901 129.17 156.934 129.204L162.186 135.583C162.186 135.583 162.186 135.583 162.194 135.585L167.186 141.65C167.268 141.723 167.337 141.808 167.389 141.898L170.38 145.529L172.83 136.386L168.395 130.528L168.385 130.534ZM147.925 132.643L143.76 127.815L137.96 121.097L134.994 117.657L128.959 110.656L125.888 107.104L123.753 104.634L120.785 115.714L145.412 142.056L147.931 132.653L147.925 132.643ZM155.94 137.772L161.938 144.72L167.368 146.175L165.012 143.31C165.012 143.31 165.004 143.308 165.006 143.3C165.006 143.3 164.998 143.298 164.993 143.288L159.912 137.115L154.645 130.724L149.501 124.474L142.943 122.717L144.263 124.247L150.618 131.618L155.943 137.79L155.94 137.772ZM109.465 157.961L130.73 163.659L112.37 147.117L109.465 157.961ZM145.583 100.423L140.347 93.511L137.723 90.0451L135.956 87.7074L131.8 82.2186L128.473 94.6375L134.074 101.437C134.127 101.493 134.171 101.547 134.213 101.609L140.092 108.752C140.092 108.752 140.1 108.754 140.106 108.764L145.808 115.692C145.827 115.714 145.839 115.734 145.858 115.756L145.877 115.778L149.653 120.367L152.537 109.601L150.67 107.136L150.634 107.084L145.59 100.425L145.583 100.423ZM173.651 113.201L169.579 107.18L150.202 101.988L154.587 107.782L156.186 109.898L160.577 115.702L162.151 117.787L179.969 122.561L177.857 119.442L173.641 113.207L173.651 113.201ZM139.027 165.883L144.586 145.135L119.96 118.793L113.151 144.203L136.449 165.192L139.027 165.883ZM163.306 92.9193L165.976 82.9528L128.085 72.7999L131.634 77.4796L137.261 84.9077L142.697 92.0748L144.123 93.9602L147.621 98.584L167.334 103.866L164.717 99.9991L164.667 99.9353L162.688 97.0115L162.682 97.0015C162.653 96.9519 162.625 96.9022 162.598 96.8447C162.581 96.8149 162.564 96.7851 162.554 96.7574C162.533 96.7098 162.528 96.6664 162.515 96.6209C162.508 96.5854 162.485 96.5457 162.478 96.5101C162.47 96.4746 162.473 96.4333 162.466 96.3978C162.463 96.3466 162.458 96.3032 162.455 96.252C162.455 96.2185 162.463 96.1872 162.462 96.1616C162.469 96.1047 162.474 96.0555 162.49 95.9928C162.49 95.9928 162.492 95.985 162.495 95.9772L163.311 92.9292L163.306 92.9193ZM117.291 98.8215L123.371 100.451C123.387 100.455 123.395 100.457 123.403 100.459C123.457 100.474 123.502 100.494 123.547 100.515C123.592 100.535 123.631 100.546 123.668 100.564C123.713 100.584 123.748 100.61 123.793 100.631C123.836 100.659 123.871 100.685 123.914 100.714C123.949 100.74 123.976 100.764 124.001 100.796C124.042 100.832 124.082 100.868 124.113 100.91C124.119 100.92 124.127 100.922 124.14 100.934L131.017 108.899L131.177 109.084L134.248 112.636L137.215 116.076L137.722 116.658L139.882 119.159L146.62 120.965L143.605 117.302L143.597 117.299L137.839 110.298C137.839 110.298 137.833 110.288 137.825 110.286L131.875 103.065C131.875 103.065 131.875 103.065 131.869 103.055C131.869 103.055 131.869 103.055 131.861 103.053L126.046 95.9858L111.284 92.0304L117.283 98.8194L117.291 98.8215ZM167.04 98.5388L171.6 105.278L171.684 105.401L175.432 110.94L185.039 125.137L197.803 128.557L181.864 102.511L167.04 98.5388ZM521.183 159.756L516.599 158.528C515.824 158.32 515.348 157.588 515.537 156.882L525.148 121.013L515.174 118.34L507.723 116.343L497.607 113.633L495.39 113.039L481.017 166.679L547.562 184.51L550.314 174.238L551.983 168.009L521.199 159.76L521.183 159.756ZM407.021 28.0983L401.176 40.103L398.984 48.283L404.581 37.2029L407.021 28.0983ZM400.192 90.7554L403.018 86.0707L403.515 85.2468L407.578 78.5169L408.333 77.2663L411.406 72.1608L398.838 68.7933L388.776 87.6965L400.2 90.7575L400.192 90.7554ZM388.557 110.043L389.415 108.627L389.962 107.716L393.577 101.714L394.316 100.493L396.569 96.7548L398.763 93.1102L387.488 90.0891L378.312 107.315L388.545 110.057L388.557 110.043ZM400.922 50.8598L395.325 61.9399L391.382 76.6546L396.673 66.7184L400.922 50.8598ZM491.647 115.723L465.84 139.199L464.022 145.985L489.432 123.989L491.647 115.723ZM474.773 105.86L487.86 92.6552L478.951 90.2681L474.773 105.86ZM538.144 212.983L538.136 212.981L534.126 214.594L545.691 217.692L566.551 210.08L553.818 206.669L546.07 209.791L538.162 212.979L538.144 212.983ZM394.497 53.8409L389.654 63.7964L387.951 70.1508L392.586 60.971L394.495 53.8487L394.497 53.8409ZM388.931 74.6122L384.296 83.7921L380.962 96.2345L385.343 88.0027L388.933 74.6044L388.931 74.6122ZM538.417 232.556L523.718 228.617L508.667 234.107L522.246 237.746L538.425 232.558L538.417 232.556ZM542.369 239.493L549.658 237.365L552.865 236.427L543.243 233.849L527.065 239.037L535.84 241.388L542.361 239.491L542.369 239.493ZM559.716 239.942L560.499 237.02L558.32 237.662L550.658 239.9L543.362 242.026L540.52 242.852L557.703 247.456L559.714 239.95L559.716 239.942ZM511.023 220.958L514.95 219.373L521.945 216.553C521.953 216.555 521.963 216.549 521.963 216.549C521.963 216.549 521.963 216.549 521.973 216.544L521.983 216.538L528.647 213.856L531.591 202.871L513.695 210.924L511.006 220.961L511.023 220.958ZM580.978 236.251L570.841 239.043L567.857 250.177L576.617 252.524L580.976 236.258L580.978 236.251ZM492.754 228.307L495.783 227.094L495.793 227.089L495.803 227.083C495.811 227.085 495.821 227.079 495.821 227.079L501.865 224.643C501.865 224.643 501.865 224.643 501.875 224.637L507.664 222.308L510.305 212.451L495.189 219.251L492.764 228.301L492.754 228.307ZM519.134 227.389L509.058 224.689L503.137 227.074C503.137 227.074 503.137 227.074 503.129 227.072L497.049 229.516C497.049 229.516 497.041 229.514 497.039 229.522L497.029 229.528C497.027 229.536 497.019 229.533 497.009 229.539L494.854 230.406L504.084 232.879L519.134 227.389ZM512.31 204.969L508.67 206.706L503.713 209.064L497.072 212.223L496.106 215.827L511.222 209.027L512.312 204.961L512.31 204.969ZM533.788 194.734L529.235 196.899L526.857 198.033L515.747 203.328L514.63 207.497L532.526 199.443L533.788 194.734ZM582.494 230.593L579.049 231.602L574.74 232.858L572.316 233.569L571.661 236.013L581.798 233.22L582.501 230.596L582.494 230.593ZM560.512 248.192L565.064 249.412L567.607 239.924L562.339 241.376L560.512 248.192ZM570.596 231.243L578.039 229.072L567.171 226.16L547.877 232.353L557.741 234.996L565.348 232.776L567.061 232.278L570.586 231.249L570.596 231.243ZM569.058 234.509L568.057 234.796L563.764 236.055L563.149 238.351L568.417 236.899L569.055 234.517L569.058 234.509ZM549.903 186.775C549.882 186.82 549.848 186.852 549.822 186.887C549.796 186.922 549.778 186.959 549.754 186.987C549.727 187.022 549.695 187.047 549.664 187.072C549.63 187.105 549.596 187.137 549.564 187.162C549.532 187.188 549.502 187.205 549.464 187.22C549.422 187.251 549.381 187.281 549.333 187.302C549.323 187.308 549.323 187.308 549.313 187.314L547.937 187.969L544.452 189.63L537.231 193.07L535.942 197.881L556.615 188.582L561.259 171.25L552.959 175.492L550.008 186.509C550.005 186.517 550.003 186.524 550.003 186.524C550.001 186.532 549.999 186.54 549.999 186.54C549.987 186.587 549.968 186.624 549.95 186.661C549.934 186.691 549.923 186.73 549.907 186.759L549.903 186.775ZM415.094 71.6208L410.874 78.6274L410.663 78.9741L405.342 87.802L402.049 93.2599L401.504 94.1638L400.131 99.288L418.22 70.3924L420.12 63.3015L415.855 70.3802L415.1 71.6307L415.094 71.6208ZM523.379 218.911C523.29 218.962 523.197 218.996 523.096 219.028L516.234 221.791L513.137 223.036L523.456 225.801L541.411 219.25L530.089 216.216L523.397 218.907L523.379 218.911ZM532.039 212.481L536.754 210.586C536.833 210.54 536.916 210.512 537.007 210.486L544.801 207.351L552.424 204.288L555.712 192.018L535.036 201.325L532.045 212.49L532.039 212.481ZM528.022 227.033L543.042 231.057L562.337 224.865L545.969 220.479L528.014 227.031L528.022 227.033ZM144.094 545.663L146.081 543.013L144.89 542.694L144.094 545.663ZM111.029 492.799L95.7663 488.709L93.3577 490.709L89.2649 494.106L86.9003 496.067L102.822 500.333L111.037 492.801L111.029 492.799ZM104.423 488.308L122.507 493.154L132.798 454.745L112.035 449.181L110.071 450.587L108.45 451.748L99.9432 457.858L99.4751 458.195L94.4541 461.795L91.9805 463.568L91.9088 463.616L85.4638 468.238L84.0993 469.224L77.3813 474.05C77.3614 474.062 77.3415 474.073 77.3217 474.084C77.2599 474.127 77.2003 474.161 77.135 474.186C77.0974 474.201 77.0597 474.216 77.032 474.225C76.9745 474.252 76.9113 474.268 76.8423 474.275C76.8067 474.282 76.7712 474.29 76.7357 474.297C76.6646 474.312 76.5898 474.308 76.5151 474.305C76.4817 474.304 76.4561 474.306 76.4305 474.308C76.3223 474.304 76.2262 474.286 76.1165 474.257L62.8122 470.692L61.1956 476.725L95.6317 485.952L104.399 488.302L104.423 488.308ZM52.4139 376.957L49.2305 377.994L44.0843 379.68L41.362 380.563L96.8828 395.44L108.705 351.319L87.3459 345.596L81.6626 366.806C81.6542 366.838 81.638 366.867 81.6317 366.891C81.6113 366.935 81.5987 366.982 81.5782 367.027C81.5599 367.064 81.5337 367.099 81.5154 367.136C81.4892 367.171 81.4709 367.209 81.4447 367.244C81.4186 367.279 81.3845 367.311 81.3527 367.336C81.3186 367.369 81.2925 367.404 81.2606 367.429C81.2287 367.454 81.1868 367.485 81.1471 367.508C81.1074 367.531 81.0755 367.556 81.0378 367.571C80.9902 367.592 80.9406 367.621 80.8852 367.639C80.8575 367.649 80.8355 367.668 80.8078 367.677L69.6983 371.31L52.4218 376.959L52.4139 376.957ZM50.7831 389.218L56.0603 387.231L36.7855 382.066L36.2335 382.246L31.0617 383.934L50.7753 389.216L50.7831 389.218ZM77.4309 281.963L77.4153 281.959L61.5886 282.009L35.4251 379.653L36.1334 379.423L42.9989 377.181L48.143 375.502L51.3264 374.466L67.9203 369.045L91.2642 281.924L77.4367 281.973L77.4309 281.963ZM89.7868 405.657L57.952 397.126L45.5801 402.117L78.9505 411.059L89.7868 405.657ZM91.5115 455.07L80.8203 462.375L78.9035 469.528L89.7164 461.769L91.5094 455.078L91.5115 455.07ZM97.332 411.315C97.3518 411.303 97.3816 411.286 97.4015 411.274L98.6287 410.612C98.6287 410.612 98.6287 410.612 98.6365 410.614L101.853 408.89L93.7984 406.732L82.9622 412.133L91.534 414.43L97.3299 411.322L97.332 411.315ZM103.247 411.27L100.218 412.894C100.18 412.909 100.148 412.934 100.11 412.949L98.8952 413.598L98.8931 413.606L93.0497 416.734L91.0048 424.366L101.326 418.44L103.25 411.263L103.247 411.27ZM45.2565 391.289L46.5258 390.815L46.5613 390.808L26.4952 385.431L19.0599 387.856L39.6981 393.386L45.2644 391.292L45.2565 391.289ZM41.1944 400.933L53.5663 395.943L46.0053 393.917L40.439 396.011L33.1163 398.769L41.1866 400.931L41.1944 400.933ZM18.1507 385.295L32.1388 380.729L58.5878 282.02L45.8131 282.057L18.1528 385.287L18.1507 385.295ZM100.322 422.218L90.0028 428.137L81.9388 458.232L92.6299 450.927L100.322 422.218ZM118.039 391.577L114.678 390.677L108.801 393.46L104.308 395.59L107.999 396.579L118.039 391.577ZM56.613 389.932L55.3438 390.406L50.421 392.262L50.2427 392.332L57.6314 394.311L67.5724 390.307L60.5912 388.437L56.613 389.932ZM110.945 438.426L120.855 431.651L127.576 406.57L118.007 412.068L110.945 438.426ZM104.458 398.352L100.65 397.331L98.669 398.27C98.6314 398.285 98.5959 398.292 98.5661 398.31C98.5284 398.325 98.4808 398.345 98.4432 398.361C98.3977 398.374 98.3444 398.384 98.2932 398.388C98.2577 398.395 98.2143 398.4 98.1788 398.407C98.1176 398.416 98.0685 398.411 98.0094 398.412C97.976 398.412 97.9425 398.411 97.9013 398.409C97.8109 398.401 97.7148 398.384 97.6286 398.361L71.968 391.485L62.027 395.489L93.3603 403.885L104.466 398.354L104.458 398.352ZM144.605 477.971L145.174 475.848L145.118 475.9L144.79 476.215L141.956 478.958L144.173 479.552L144.597 477.969L144.605 477.971ZM142.155 487.115L143.499 482.1L139.761 481.099L137.697 483.099L134.895 485.816L134.394 486.304L131.604 489.007L130.416 490.15L138.58 492.338L141.606 489.193L142.167 487.101L142.155 487.115ZM147.257 468.075L127.188 486.934L126.321 490.17L129.449 487.145L129.777 486.83L132.24 484.441L132.74 483.954L133.716 483.006L138.114 478.751L138.192 478.68L140.667 476.278L142.653 474.349L146.599 470.528L147.257 468.075ZM105.753 406.811C105.753 406.811 105.76 406.813 105.762 406.805L111.842 403.546L111.852 403.541L111.862 403.535L112.853 403.003L115.815 401.411L108.45 399.438L97.3443 404.969L105.234 407.083L105.735 406.814L105.753 406.811ZM97.6201 508.933L117.443 514.244L123.024 508.459L103.765 503.298L97.6201 508.933ZM134.651 515.118L135.537 511.812L126.159 509.299L120.577 515.084L133.717 518.605L134.651 515.118ZM114.281 493.67L106.065 501.202L125.113 506.306L136.484 494.522L128.202 492.303L127.66 492.821L124.643 495.742C124.631 495.755 124.621 495.761 124.604 495.765C124.528 495.828 124.444 495.89 124.363 495.943C124.353 495.949 124.343 495.955 124.341 495.963C124.341 495.963 124.333 495.961 124.331 495.969C124.233 496.018 124.13 496.058 124.014 496.085C124.006 496.083 123.994 496.097 123.978 496.092C123.96 496.096 123.945 496.092 123.927 496.096C123.838 496.114 123.754 496.116 123.669 496.119C123.651 496.122 123.633 496.126 123.61 496.12C123.602 496.118 123.594 496.115 123.579 496.111C123.463 496.105 123.349 496.092 123.231 496.06L114.268 493.658L114.281 493.67ZM150.599 455.601L153.043 446.481L133.558 463.162L128.576 481.755L148.644 462.896L150.599 455.601ZM136.65 507.659L139.923 495.444L139.61 495.36L128.239 507.144L136.216 509.281L136.65 507.659ZM110.759 446.673L112.589 445.358L112.702 445.279L113.328 444.825L118.267 441.278L119.735 435.801L109.824 442.576L108.241 448.484L108.916 448.002L110.757 446.681L110.759 446.673ZM121.99 438.606L125.151 436.337L125.639 435.989L129.682 433.092L130.909 432.211L132.233 427.267L123.411 433.301L121.986 438.621L121.99 438.606ZM98.7167 455.321L104.528 451.151L106.153 445.086L95.1956 452.572L93.4447 459.106L98.1033 455.761L98.7167 455.321ZM114.451 414.121L103.871 420.196L96.302 448.443L107.26 440.957L114.448 414.129L114.451 414.121ZM117.216 403.802L114.43 405.298C114.4 405.315 114.38 405.327 114.35 405.344L113.449 405.824C113.407 405.855 113.359 405.876 113.312 405.897L107.369 409.083C107.317 409.119 107.268 409.148 107.212 409.167L106.762 409.407L104.883 416.42L115.462 410.345L117.218 403.794L117.216 403.802ZM558.334 407.638L564.598 410.929L565.612 407.144L558.705 403.681L558.697 403.679L558.631 403.644L552.582 400.613L551.644 404.115L556.179 406.498L558.349 407.642L558.334 407.638ZM546.558 413.88L521.77 399.957L486.206 390.427L506.497 403.145L546.558 413.88ZM470.497 437.05L476.759 442.826L482.921 448.508L491.58 456.497C491.593 456.509 491.599 456.519 491.613 456.531C491.653 456.567 491.676 456.607 491.709 456.641C491.734 456.673 491.767 456.707 491.79 456.746C491.813 456.786 491.836 456.826 491.861 456.858C491.884 456.898 491.907 456.937 491.922 456.975C491.937 457.013 491.95 457.058 491.965 457.096C491.98 457.133 491.993 457.179 491.998 457.222C492.004 457.266 492.009 457.309 492.014 457.352C492.019 457.396 492.024 457.439 492.022 457.48C492.019 457.522 492.016 457.563 492.016 457.596C492.011 457.645 492.006 457.695 491.994 457.742C491.989 457.757 491.987 457.765 491.983 457.781L489.05 468.727L508.922 488.429L513.207 472.437L474.694 438.183L470.495 437.058L470.497 437.05ZM440.944 495.474L442.269 497.391L448.506 499.063L448.254 498.718L447.102 497.125L440.951 495.476L440.944 495.474ZM530.376 474.87L492.24 442.876L480.487 439.727L515.52 470.89L530.384 474.872L530.376 474.87ZM486.556 478.035L484.425 485.988L503.859 507.327L508.116 491.437L488.244 471.735L486.554 478.043L486.556 478.035ZM342.645 540.206L339.573 551.669C339.387 552.366 338.606 552.77 337.831 552.563L336.17 552.118L338.742 565.395L349.249 568.211L342.637 540.204L342.645 540.206ZM323.453 548.71L329.714 589.874L330.163 588.198L323.735 548.786L323.453 548.71ZM330.191 550.516L326.76 549.596L331.955 581.481L336.019 566.312L333.106 551.297L330.184 550.514L330.191 550.516ZM313.961 547.527L313.776 546.117L272.696 535.11C272.61 535.087 272.518 535.054 272.436 535.015C272.415 535.001 272.385 534.985 272.362 534.978C272.311 534.948 272.261 534.918 272.21 534.887C272.183 534.863 272.153 534.847 272.134 534.825C272.115 534.803 272.084 534.795 272.064 534.773C272.045 534.751 272.031 534.739 272.012 534.717C271.985 534.693 271.966 534.671 271.938 534.647C271.9 534.603 271.869 534.561 271.838 534.519C271.819 534.497 271.802 534.467 271.79 534.447C271.754 534.396 271.733 534.348 271.714 534.292C271.703 534.273 271.693 534.245 271.682 534.225C271.657 534.16 271.635 534.087 271.628 534.018C271.623 534.008 271.617 533.998 271.621 533.982C271.609 533.903 271.596 533.824 271.599 533.749L271.606 533.726L271.669 530.292L271.749 526.484L271.866 520.594L271.349 520.456L271.23 524.035C271.227 524.076 271.226 524.11 271.224 524.151L271.047 529.478L271.046 529.545L270.857 535.205C270.855 535.213 270.855 535.213 270.852 535.221L270.666 541.057C270.662 541.073 270.665 541.091 270.661 541.106L270.433 548.1L315.611 560.205L314.765 553.646L313.973 547.514L313.961 547.527ZM267.772 540.887L267.774 540.879L267.776 540.871L267.969 535.011C267.969 535.011 267.972 535.003 267.974 534.995L268.105 531.184L258.613 566.607L258.176 572.847L257.732 579.203L257.262 586.005L257.153 587.538L267.52 548.847L267.776 540.904L267.772 540.887ZM446.445 503.465L450.102 508.778L450.361 509.158L457.123 510.97L456.136 509.606L453.2 505.552L450.944 502.437L444.558 500.726L446.431 503.453L446.445 503.465ZM453.928 514.338L455.56 516.707L457.053 518.879L457.917 520.135C457.925 520.137 457.923 520.145 457.928 520.155C457.959 520.197 457.98 520.244 458.009 520.294C458.024 520.332 458.041 520.362 458.058 520.391C458.079 520.439 458.084 520.482 458.097 520.528C458.112 520.565 458.125 520.611 458.133 520.646C458.14 520.682 458.143 520.733 458.142 520.767C458.148 520.81 458.153 520.853 458.148 520.902C458.147 520.936 458.137 520.975 458.136 521.009C458.132 521.058 458.127 521.107 458.112 521.162C458.11 521.169 458.108 521.177 458.108 521.177L457.631 522.956L467.755 525.668L466.039 523.294L462.559 518.482L459.574 514.356L452.672 512.507L453.935 514.34L453.928 514.338ZM417.913 516.865L421.006 522.59L422.466 525.29L425.749 513.036L422.709 507.896L422.703 507.886C422.703 507.886 422.705 507.879 422.698 507.876L419.51 502.504C419.51 502.504 419.512 502.496 419.504 502.494L418.249 500.378L415.184 511.817L417.907 516.855L417.913 516.865ZM394.07 508.032L391.076 519.205L420.247 527.022L418.445 523.684C418.445 523.684 418.445 523.684 418.437 523.682L415.344 517.957L412.684 513.029L394.075 508.042L394.07 508.032ZM519.455 390.166L500.831 385.176L522.838 397.539L544.455 403.331L541.799 401.931L536.67 399.229L534.499 398.085L527.39 394.341L520.48 390.701L519.45 390.156L519.455 390.166ZM535.84 395.808L538.01 396.952L543.14 399.653L549.005 402.745L549.926 399.305L543.419 396.041L543.411 396.039L543.403 396.037C543.403 396.037 543.396 396.035 543.388 396.033L536.057 392.364L536.028 392.348C536.028 392.348 536.028 392.348 536.02 392.346L536.004 392.341C536.004 392.341 536.004 392.341 535.996 392.339L528.912 388.786L528.904 388.784L528.896 388.782L528.859 388.764L523.579 386.123L522.815 388.975L528.732 392.089L535.841 395.833L535.84 395.808ZM409.533 507.204L406.828 502.197L404.307 497.532C404.265 497.47 404.232 497.403 404.2 497.335L401.803 492.897L399.477 488.604C399.477 488.604 399.479 488.596 399.471 488.594L397.586 485.1L389.962 483.057L390.689 484.511L392.796 488.746L395.023 493.222L396.78 496.758C396.783 496.776 396.787 496.794 396.801 496.806C396.822 496.853 396.842 496.901 396.855 496.946C396.87 496.984 396.886 497.022 396.891 497.065C396.904 497.11 396.909 497.154 396.914 497.197C396.919 497.241 396.924 497.284 396.922 497.325C396.919 497.366 396.916 497.408 396.914 497.449C396.909 497.498 396.906 497.539 396.894 497.586C396.89 497.602 396.893 497.62 396.889 497.636L394.779 505.51L410.982 509.852L409.561 507.228C409.561 507.228 409.561 507.228 409.563 507.221L409.533 507.204ZM370.222 539.584L371.95 533.135L369.498 532.478L368.78 535.158L370.222 539.584ZM360.742 571.298L348.718 526.911L346.383 526.285L344.202 534.426L352.381 569.058L360.742 571.298ZM379.523 576.331L369.508 545.632C369.479 545.616 369.468 545.596 369.441 545.572C369.413 545.548 369.386 545.524 369.367 545.502C369.301 545.434 369.235 545.366 369.18 545.292C369.166 545.28 369.153 545.268 369.149 545.25C369.089 545.159 369.04 545.062 369 544.959C368.995 544.949 368.989 544.939 368.991 544.931L364.501 531.131L351.878 527.749L363.894 572.135L379.509 576.319L379.523 576.331ZM410.726 487.68L410.515 487.338L405.25 485.927C405.148 485.9 405.056 485.867 404.974 485.828C404.966 485.826 404.96 485.816 404.96 485.816C404.878 485.777 404.799 485.731 404.731 485.67L404.723 485.668L404.717 485.658C404.696 485.644 404.684 485.624 404.671 485.612C404.616 485.564 404.568 485.526 404.521 485.48C404.494 485.456 404.477 485.426 404.46 485.396C404.421 485.352 404.385 485.3 404.348 485.249C404.342 485.239 404.337 485.229 404.331 485.219L402.947 482.799L401.655 480.538L401.192 479.726L400.082 483.87L402.047 487.504L402.053 487.514L404.38 491.807L406.822 496.325C406.822 496.325 406.822 496.325 406.82 496.333C406.82 496.333 406.82 496.333 406.826 496.343L409.404 501.106L412.112 506.107C412.112 506.107 412.112 506.107 412.11 506.114L413.182 508.098L416.187 496.886L413.536 492.422L413.531 492.412C413.531 492.412 413.531 492.412 413.533 492.404C413.533 492.404 413.525 492.402 413.519 492.392L410.795 487.799C410.764 487.757 410.735 487.707 410.712 487.668L410.726 487.68ZM440.173 499.198L437.929 495.943L436.857 494.396L414.331 488.36L415.992 491.157C416.023 491.199 416.051 491.248 416.08 491.298L418.665 495.66L442.045 501.925L440.165 499.196L440.173 499.198ZM391.002 579.407L379.916 548.538L372.809 546.634L382.782 577.204L391.002 579.407ZM394.276 561.826L397.186 569.458L398.613 573.191L403.523 554.864L390.274 551.314L393.315 559.301L394.276 561.826ZM451.374 515.468L448.28 510.969C448.28 510.969 448.28 510.969 448.272 510.967L445.339 506.713L444.348 505.272L420.592 498.906L421.996 501.281C422.013 501.311 422.03 501.34 422.047 501.37L425.17 506.641C425.212 506.703 425.247 506.762 425.279 506.83L428.245 511.84L453.513 518.611L451.36 515.489L451.374 515.468Z" fill="#F29100"/>
<path fill-rule="evenodd" clip-rule="evenodd" d="M317.356 157.456C333.069 159.354 347.994 163.799 361.695 170.378V179.439H356.844V170.645C356.844 170.297 356.536 170.021 356.147 170.021H327.05C327.034 170.021 327.026 170.021 327.009 170.021C326.985 170.021 326.953 170.021 326.928 170.029C326.912 170.029 326.888 170.037 326.871 170.045C326.847 170.053 326.823 170.061 326.798 170.061C326.782 170.07 326.758 170.078 326.742 170.086C326.717 170.094 326.693 170.102 326.677 170.118C326.661 170.126 326.644 170.143 326.628 170.151C326.612 170.167 326.588 170.183 326.571 170.191C326.555 170.207 326.547 170.224 326.531 170.232C326.515 170.248 326.498 170.264 326.482 170.28C326.466 170.297 326.458 170.313 326.45 170.329C326.442 170.345 326.425 170.362 326.417 170.386C326.409 170.402 326.401 170.426 326.393 170.451C326.393 170.467 326.377 170.475 326.377 170.491L324.203 178.027L323.797 179.447H317.348V157.464L317.356 157.456ZM373.554 176.77C373.96 177.013 374.373 177.256 374.779 177.508L367.949 187.915H366.554C366.546 187.915 366.538 187.915 366.529 187.915C366.521 187.915 366.513 187.915 366.505 187.915L373.554 176.77ZM375.915 178.222C376.791 178.773 377.667 179.333 378.535 179.901L372.962 187.907H369.555L375.915 178.214V178.222ZM379.654 180.647C380.165 180.988 380.66 181.337 381.163 181.685L376.645 187.915H374.593L379.646 180.647H379.654ZM382.274 182.448C383.24 183.129 384.189 183.819 385.13 184.516L382.51 187.907H378.308L382.266 182.44L382.274 182.448ZM386.2 185.328C387.076 186.001 387.952 186.674 388.82 187.364L383.353 194.048V189.018L386.2 185.328ZM389.867 188.199C392.041 189.959 394.166 191.793 396.234 193.675L384.61 206.288H383.361V196.157L389.875 188.199H389.867ZM397.208 194.575C397.865 195.183 398.522 195.8 399.163 196.424L389.607 206.288H386.411L397.208 194.575ZM400.104 197.349C400.704 197.933 401.288 198.525 401.88 199.126L394.612 206.296H391.449L400.104 197.357V197.349ZM403.851 201.17C404.184 201.519 404.516 201.867 404.841 202.224V206.126L401.54 209.111V206.913C401.54 206.564 401.231 206.288 400.842 206.288H399.576V205.299L402.651 202.322L403.851 201.162V201.17ZM406.228 203.749C406.415 203.96 406.601 204.163 406.788 204.374L406.228 204.885V203.749ZM407.664 205.363C409.156 207.075 410.616 208.827 412.028 210.612L406.228 215.341V206.653L407.664 205.355V205.363ZM412.839 211.642C413.829 212.915 414.794 214.205 415.743 215.511V216.038L412.231 218.675L408.605 221.4L406.236 223.185V217.028L412.847 211.634L412.839 211.642ZM416.789 216.963C417.56 218.058 418.306 219.161 419.045 220.273L413.869 223.907H407.453L409.481 222.382L413.115 219.656L416.684 216.971H416.789V216.963ZM419.766 221.36C420.318 222.203 420.853 223.047 421.389 223.907H416.141L419.766 221.36ZM422.159 225.156C422.273 225.343 422.387 225.529 422.5 225.724L413.918 231.248H405.668L414.348 225.156H422.159ZM423.165 226.835C423.684 227.719 424.195 228.603 424.698 229.496L421.811 231.248H416.311L423.165 226.835ZM425.323 230.631C425.51 230.972 425.696 231.321 425.883 231.662L423.368 233.138V231.816L425.323 230.631ZM426.491 232.805C427.083 233.925 427.651 235.06 428.219 236.196V241.436L424.163 243.496H423.368V234.639L426.491 232.805ZM429.598 239.092C429.801 239.53 430.012 239.976 430.206 240.414L429.598 240.722V239.084V239.092ZM431.098 242.434L431.309 242.921L430.125 243.496H426.986L429.079 242.434H431.09H431.098ZM432.088 244.754C436.233 254.796 439.267 265.422 441.043 276.462H391.846C390.508 271.052 388.707 265.82 386.484 260.815V244.754H401.856H424.35H430.312H432.088ZM441.295 278.133C441.725 281.062 442.082 284.014 442.333 286.999H437.401V284.623V279.074L441.303 278.141L441.295 278.133ZM436.006 286.999H428.048L436.006 285.41V286.999ZM421.592 286.999H410.487L436.006 281.2V284.128L421.592 286.999ZM404.792 286.999H404.265L430.474 280.721L433.264 280.056L434.084 279.861L435.998 279.399V279.902L404.792 286.999ZM398.83 286.999H393.801C393.785 286.862 393.76 286.716 393.744 286.578H400.59L398.83 286.999ZM393.574 285.32C393.428 284.323 393.266 283.333 393.079 282.335H418.298L414.405 283.268L405.831 285.32H393.566H393.574ZM392.852 281.078C392.633 279.95 392.39 278.831 392.13 277.72H437.588L436.517 277.979L430.117 279.512L423.547 281.086H392.852V281.078ZM385.073 257.854C383.572 254.772 381.917 251.795 380.1 248.915L380.628 248.542L382.226 247.414L383.913 246.222L385.065 245.411V257.854H385.073ZM379.403 247.82C378.989 247.187 378.575 246.555 378.145 245.938L379.841 244.665H383.889L381.39 246.425L380.806 246.839L379.411 247.82H379.403ZM377.399 244.859C376.758 243.951 376.109 243.058 375.444 242.174L378.9 239.351V243.74L377.407 244.859H377.399ZM374.641 241.136C374.398 240.82 374.146 240.503 373.895 240.195L378.892 235.928V237.664L374.641 241.136ZM373.068 239.173C372.321 238.264 371.551 237.356 370.772 236.472L391.781 216.963H399.098L390.743 224.093L389.396 225.245L386.646 227.598L385.227 228.806L382.015 231.548L381.504 231.978L379.119 234.014L377.213 235.636L376.864 235.936L374.739 237.753L373.076 239.173H373.068ZM369.88 235.498C368.111 233.56 366.262 231.694 364.331 229.901L376.215 216.963H389.834L369.88 235.498ZM363.358 229.009C362.141 227.906 360.892 226.835 359.61 225.805L366.886 216.971H374.414L363.358 229.009ZM358.572 224.969C357.964 224.491 357.355 224.02 356.731 223.55L365.848 211.739V216.136L358.572 224.969ZM355.652 222.763C354.451 221.887 353.234 221.035 351.985 220.216L352.22 219.883L352.488 219.494L356.731 213.386C356.739 213.378 356.747 213.362 356.747 213.353C356.763 213.329 356.771 213.305 356.779 213.289C356.787 213.272 356.795 213.248 356.804 213.232C356.804 213.216 356.82 213.191 356.82 213.175C356.828 213.151 356.828 213.126 356.828 213.102C356.828 213.086 356.828 213.07 356.828 213.061V210.677L365.832 197.39V209.573L355.635 222.779L355.652 222.763ZM350.858 219.486C349.138 218.391 347.386 217.344 345.593 216.355L347.207 213.678H354.897L353.599 215.544L353.275 216.014L351.377 218.74L351.223 218.959L350.866 219.486H350.858ZM344.401 215.714C343.07 215.008 341.724 214.327 340.353 213.678H345.634L344.401 215.714ZM337.571 212.421C334.383 211.042 331.106 209.833 327.748 208.803V171.294H355.457V212.137V212.429H337.571V212.421ZM326.36 208.389H326.344L326.36 208.357V208.397V208.389ZM325.022 208.016C323.886 207.708 322.743 207.416 321.591 207.14V199.312L326.36 183.738V204.455L325.022 208V208.016ZM320.204 206.832C319.92 206.767 319.628 206.71 319.344 206.653L320.204 203.838V206.832ZM317.981 206.377C317.819 206.345 317.657 206.321 317.486 206.288L318.784 201.802L320.204 196.903V199.15L317.981 206.377ZM316.132 206.037C314.85 205.818 313.56 205.623 312.262 205.453V202.265H317.219L316.878 203.441L316.716 203.993V204.001L316.132 206.029V206.037ZM442.317 311.554C442.268 312.17 442.203 312.786 442.138 313.395H428.543L424.69 312.608C424.682 312.608 424.674 312.608 424.666 312.608L420.918 311.837C420.87 311.821 420.821 311.813 420.772 311.805L419.474 311.537H442.211L442.309 311.554H442.317ZM442.017 314.652C442.001 314.798 441.984 314.944 441.968 315.09H436.769L434.643 314.652H442.017ZM441.814 316.348C441.692 317.345 441.571 318.335 441.425 319.324L438.942 318.757L437.385 318.4V316.339H441.814V316.348ZM441.246 320.574C441.189 320.947 441.133 321.312 441.076 321.685H433.151L419.994 318.327H431.309L432.372 318.57L436.533 319.511L438.61 319.982L441.206 320.566L441.254 320.574H441.246ZM440.865 322.934C439.859 328.929 438.488 334.802 436.769 340.52H432.705H390.094V328.093C390.637 326.398 391.14 324.67 391.587 322.934H408.102H433.037H440.849H440.865ZM435.974 343.084C435.755 343.749 435.544 344.398 435.317 345.055L427.27 341.77H428.373H432.567L435.974 343.075V343.084ZM434.903 346.263C434.635 347.034 434.359 347.813 434.075 348.583L418.428 341.778H423.895L434.903 346.263ZM433.621 349.776C433.362 350.457 433.102 351.139 432.834 351.82H431.139L409.586 341.77H411.055H415.232L433.629 349.768L433.621 349.776ZM432.323 353.077C429.249 360.629 425.542 367.865 421.267 374.711V353.077H430.969H432.323ZM419.888 376.893C419.515 377.469 419.134 378.045 418.753 378.613L408.28 371.166V367.216V364.174L419.888 371.62V376.901V376.893ZM418.022 379.684C416.895 381.338 415.727 382.969 414.534 384.575L398.928 372.383H407.591C407.64 372.383 407.688 372.375 407.737 372.367L418.022 379.684ZM411.793 388.12C411.533 388.452 411.265 388.785 410.99 389.117H400.477V384.405V384.25H407.031L409.148 385.978L411.703 388.047L411.785 388.12H411.793ZM409.959 390.375C408.881 391.673 407.786 392.946 406.666 394.203H400.485V390.375H409.959ZM405.539 395.461C403.9 397.253 402.213 399.006 400.485 400.717V396.718V395.461H405.539ZM399.106 402.072C398.725 402.437 398.352 402.794 397.97 403.151H387.328H371.64H363.601V398.284H368.622C369.004 398.284 369.32 398 369.32 397.651V390.748H385.251C385.292 390.748 385.34 390.748 385.381 390.732C385.397 390.732 385.413 390.724 385.43 390.724C385.454 390.715 385.478 390.707 385.511 390.699C385.527 390.691 385.543 390.683 385.56 390.675C385.584 390.667 385.6 390.659 385.624 390.642C385.641 390.634 385.657 390.618 385.673 390.61C385.689 390.602 385.697 390.594 385.706 390.586C385.714 390.578 385.714 390.569 385.722 390.569C385.738 390.553 385.754 390.537 385.77 390.521C385.787 390.505 385.803 390.488 385.811 390.472C385.827 390.456 385.835 390.44 385.843 390.415C385.86 390.399 385.868 390.383 385.876 390.367C385.884 390.35 385.892 390.326 385.9 390.31C385.908 390.294 385.916 390.269 385.925 390.253C385.925 390.237 385.933 390.212 385.933 390.196C385.933 390.172 385.941 390.148 385.941 390.131C385.941 390.123 385.941 390.115 385.941 390.107V382.734H399.106V402.064V402.072ZM396.632 404.408C393.217 407.547 389.648 410.516 385.941 413.306V404.408H396.632ZM384.562 414.345C383.588 415.059 382.607 415.756 381.617 416.446L380.895 415.448L380.847 415.383V404.408H384.554V414.345H384.562ZM380.514 417.208L380.409 417.281H378.364L369.434 404.408H371.267L372.735 406.436L374.163 408.407L379.597 415.927L379.752 416.137L380.522 417.208H380.514ZM378.535 418.53C370.196 424.022 361.257 428.678 351.823 432.345H351.134V428.743V418.53H357.193H362.904H378.519H378.535ZM339.875 436.392C332.59 438.501 325.071 440.043 317.356 440.983V419.001H339.875V436.392ZM312.262 418.555V402.55L312.668 404.278V420.623L312.465 419.577L312.262 418.563V418.555ZM312.262 396.475V395.915L312.538 397.018L313.39 400.458L313.779 402.031L314.152 403.516L314.177 403.621H313.941L313.512 401.772L312.984 399.517L312.481 397.359C312.481 397.359 312.481 397.359 312.481 397.351L312.473 397.335L312.279 396.507L312.262 396.475ZM312.944 392.897C313.958 392.76 314.964 392.605 315.969 392.435V405.154L315.71 404.116V404.108L315.345 402.631L314.736 400.182L314.566 399.492L314.031 397.326L313.755 396.191L312.944 392.906V392.897ZM317.356 392.192C319.53 391.786 321.68 391.316 323.797 390.764L326.401 397.846C326.401 397.854 326.409 397.862 326.417 397.87C326.425 397.886 326.433 397.894 326.433 397.91C326.45 397.935 326.458 397.959 326.474 397.975C326.482 397.983 326.49 397.992 326.498 398.008C326.515 398.032 326.539 398.056 326.563 398.081C326.563 398.081 326.571 398.089 326.579 398.097C326.612 398.121 326.644 398.146 326.677 398.17C326.685 398.178 326.693 398.178 326.709 398.186C326.734 398.202 326.758 398.211 326.79 398.227C326.807 398.227 326.815 398.235 326.831 398.243C326.863 398.251 326.888 398.259 326.912 398.267C326.928 398.267 326.936 398.276 326.944 398.276C326.993 398.284 327.034 398.292 327.074 398.292H348.205V410.224H343.144H317.373V392.208L317.356 392.192ZM325.127 390.407C325.541 390.294 325.955 390.172 326.369 390.058V393.774L325.127 390.407ZM327.756 389.653C335.713 387.219 343.217 383.764 350.128 379.44H367.941V397.018H349.39H327.756V389.653ZM352.083 378.183C352.699 377.777 353.316 377.355 353.916 376.934L354.849 378.183H352.074H352.083ZM355.011 376.163C357.128 374.646 359.188 373.048 361.168 371.361L362.895 373.316L367.187 378.175H356.52L355.011 376.155V376.163ZM362.174 370.493C362.839 369.917 363.488 369.333 364.128 368.741L365.126 369.795L366.456 371.207L366.481 371.239C366.481 371.239 366.481 371.247 366.489 371.247L366.903 371.677H363.212L362.165 370.485L362.174 370.493ZM365.102 367.832C365.418 367.532 365.735 367.232 366.043 366.924L367.714 368.619V370.607L367.519 370.404L366.189 369L365.102 367.849V367.832ZM366.992 365.999C367.308 365.683 367.625 365.358 367.941 365.034V366.964L367.511 366.534L366.992 366.007V365.999ZM369.328 363.574C369.912 362.941 370.488 362.308 371.056 361.659V370.112L369.328 368.36V363.574ZM372.443 360.045C375.29 356.663 377.902 353.069 380.263 349.297H406.909V371.118H372.443V360.037V360.045ZM381.041 348.048C381.26 347.683 381.471 347.318 381.69 346.953H402.935L405.028 348.048H381.041ZM382.412 345.696C383.288 344.146 384.124 342.564 384.919 340.958H387.742L389.064 341.68C389.072 341.68 389.08 341.688 389.088 341.688C389.129 341.705 389.169 341.721 389.21 341.737C389.226 341.737 389.242 341.745 389.258 341.753C389.307 341.761 389.364 341.77 389.421 341.77H393.055L400.534 345.696H382.412ZM386.046 338.574C387.02 336.456 387.912 334.307 388.723 332.109V340.034L386.046 338.574ZM391.919 321.677C392.195 320.566 392.438 319.446 392.673 318.319H392.998L403.932 321.677H391.927H391.919ZM392.933 316.972C393.12 316.015 393.282 315.042 393.436 314.076H398.287L409.976 317.061H393.217L392.933 316.972ZM393.793 311.618C393.801 311.562 393.809 311.513 393.817 311.448H401.053L402.862 311.862L403.803 312.073L406.196 312.616L407.072 312.819H398.481L393.793 311.618ZM406.763 311.448H412.62V312.778L409.951 312.17L406.763 311.448ZM258.798 435.979L258.636 435.93V435.906L260.704 430.771H260.834L260.412 431.85L258.855 435.833L258.806 435.97L258.798 435.979ZM257.257 435.5C246.793 432.215 236.848 427.77 227.568 422.294H242.875H250.492V430.138C250.492 430.487 250.8 430.771 251.189 430.771H257.249V435.5H257.257ZM225.475 421.037C224.867 420.664 224.259 420.282 223.658 419.893L223.829 419.65L225.232 417.679H233.19L231.048 421.037H225.475ZM213.373 412.73C213.048 412.479 212.724 412.228 212.399 411.976V411.936H214.022L213.373 412.73ZM210.493 410.475C209.56 409.721 208.636 408.95 207.719 408.18V407.701H210.493V410.475ZM205.715 406.444C199.258 400.758 193.321 394.495 187.983 387.738V379.44H217.777V406.444H214.46H205.715ZM186.596 385.962C186.004 385.183 185.412 384.396 184.828 383.61L186.596 382.312V385.962ZM184.065 382.555C183.441 381.679 182.816 380.803 182.216 379.919H186.596V380.697L184.065 382.555ZM181.348 378.661C180.796 377.826 180.245 376.99 179.701 376.147H189.889L186.856 378.321C186.848 378.329 186.839 378.337 186.831 378.345C186.815 378.361 186.799 378.378 186.775 378.394C186.758 378.41 186.75 378.426 186.734 378.442C186.718 378.459 186.702 378.475 186.693 378.491C186.693 378.499 186.685 378.507 186.677 378.515V378.524C186.677 378.532 186.669 378.54 186.669 378.548C186.661 378.564 186.653 378.588 186.637 378.605C186.637 378.613 186.629 378.621 186.629 378.629C186.629 378.637 186.629 378.645 186.62 378.645C186.62 378.645 186.62 378.653 186.62 378.661H181.356H181.348ZM178.622 374.419C169.034 358.974 162.318 341.559 159.203 322.926H179.32V374.419H178.622ZM159 321.669C158.96 321.425 158.919 321.19 158.879 320.947H182.565L179.912 321.669H159ZM158.708 319.69L158.676 319.503L161.896 318.813L171.038 316.859H197.62L194.886 317.597L187.196 319.681H158.708V319.69ZM196.33 311.448H206.275C206.299 311.659 206.332 311.862 206.364 312.073H193.418L194.894 311.756L196.33 311.448ZM206.543 313.33C206.591 313.687 206.656 314.036 206.713 314.393L202.26 315.601H176.927L179.726 315.001L187.561 313.322H206.551L206.543 313.33ZM206.916 315.65C208.408 324.175 211.045 332.311 214.663 339.888V340.074L208.765 343.254L206.681 344.381C206.429 344.519 206.308 344.771 206.356 345.022V346.231C206.348 346.263 206.348 346.288 206.348 346.32C206.348 346.353 206.348 346.385 206.356 346.409V357.109L203.063 359.25V316.688L206.924 315.642L206.916 315.65ZM215.295 341.194C216.05 342.719 216.853 344.219 217.688 345.696H207.735V345.282L209.479 344.341C209.479 344.341 209.479 344.341 209.487 344.333L209.504 344.325H209.512L215.295 341.202V341.194ZM219.684 349.062C222.125 352.996 224.851 356.736 227.828 360.256V361.027L225.5 362.998L225.167 363.274L222.734 365.35L222.401 365.634L220.203 367.5L219.684 367.938V349.054V349.062ZM229.069 361.692C229.296 361.943 229.523 362.203 229.75 362.446L229.004 363.111H227.398L228.996 361.757L229.077 361.692H229.069ZM231.519 364.369C231.73 364.596 231.949 364.815 232.168 365.042L231.827 365.366L231.819 365.375L231.811 365.383L231.519 365.658L229.215 367.816C229.215 367.816 229.215 367.816 229.207 367.816L229.109 367.905H225.548L229.556 364.361H231.519V364.369ZM233.092 365.983C233.336 366.226 233.587 366.47 233.83 366.705V368.238L230.099 371.953V368.79L230.18 368.717C230.205 368.7 230.229 368.676 230.245 368.66L232.492 366.551C232.508 366.534 232.524 366.518 232.541 366.502L232.817 366.242L233.1 365.983H233.092ZM237.367 370.023C237.757 370.363 238.146 370.704 238.535 371.036V377.023L235.209 380.892V369.893C235.323 369.974 235.461 370.014 235.615 370.014H237.367V370.023ZM239.922 372.205C240.458 372.651 241.001 373.081 241.553 373.519L239.922 375.417V372.213V372.205ZM242.607 374.33C242.688 374.395 242.761 374.451 242.843 374.508V376.26L241.082 378.402L240.88 378.645L239.93 379.805V377.445L242.615 374.322L242.607 374.33ZM244.806 375.968C245.665 376.585 246.541 377.193 247.426 377.785L237.854 390.432H232.963L233.1 390.261L235.072 387.844L235.364 387.487L237.481 384.907L239.192 382.815L239.784 382.093L239.841 382.02L242.08 379.294L242.194 379.156L244.092 376.844L244.319 376.569L244.806 375.968ZM248.545 378.524C249.105 378.889 249.673 379.245 250.24 379.602L242.526 390.423H239.541L248.545 378.524ZM251.384 380.308C251.595 380.438 251.806 380.56 252.017 380.681L250.622 382.717C250.614 382.734 250.605 382.742 250.605 382.758C250.589 382.774 250.581 382.798 250.573 382.823C250.565 382.839 250.557 382.863 250.557 382.88C250.549 382.896 250.541 382.92 250.541 382.936C250.541 382.953 250.532 382.969 250.532 382.977L243.597 393.092V391.243L251.392 380.308H251.384ZM253.185 381.363C253.818 381.72 254.45 382.076 255.091 382.425H252.455L253.177 381.363H253.185ZM257.492 383.674C263.487 386.7 269.854 389.109 276.498 390.813V429.514H251.903V386.935V383.674H257.492ZM277.885 391.162C278.404 391.283 278.915 391.405 279.442 391.518V419.763L277.885 425.214V391.17V391.162ZM280.83 391.811C281.495 391.948 282.16 392.078 282.825 392.2V407.904L281.178 413.688L280.83 414.904V391.811ZM284.212 392.451C284.821 392.557 285.429 392.654 286.045 392.743V396.645L284.48 402.129L284.212 403.061V392.451ZM158.108 283.463C158.27 282.011 158.457 280.567 158.659 279.131L193.329 286.991H176.57L158.116 283.471L158.108 283.463ZM158.83 277.874C159.138 275.822 159.495 273.785 159.884 271.766L172.571 275.254V277.087C172.571 277.095 172.571 277.111 172.571 277.119C172.571 277.144 172.571 277.168 172.579 277.184C172.579 277.201 172.587 277.225 172.595 277.241C172.603 277.265 172.612 277.282 172.612 277.306C172.62 277.322 172.628 277.347 172.644 277.363C172.652 277.379 172.66 277.395 172.676 277.411C172.693 277.428 172.701 277.444 172.717 277.46C172.725 277.468 172.725 277.476 172.733 277.493C172.741 277.501 172.75 277.501 172.75 277.509C172.766 277.525 172.782 277.541 172.798 277.549C172.814 277.566 172.831 277.582 172.847 277.59C172.863 277.598 172.887 277.614 172.904 277.622C172.92 277.63 172.944 277.639 172.96 277.655C172.985 277.663 173.009 277.671 173.025 277.679C173.042 277.679 173.05 277.687 173.066 277.695L193.953 283.106L195.478 283.503L196.371 283.739L206.364 286.326C206.332 286.553 206.299 286.772 206.275 287.008H199.039L158.83 277.898V277.874ZM160.128 270.517C160.623 268.124 161.166 265.755 161.774 263.403L172.563 266.98V272.309V273.932L160.128 270.517ZM162.091 262.17C163.259 257.805 164.63 253.523 166.195 249.337L172.563 252.095V264.06V265.633L162.091 262.161V262.17ZM166.65 248.136C167.428 246.117 168.239 244.113 169.107 242.134L172.563 243.829V245.93V250.7L166.65 248.136ZM169.618 240.958C170.308 239.416 171.03 237.891 171.768 236.383L172.563 236.812V242.41L169.618 240.966V240.958ZM173.95 232.124C174.218 231.613 174.494 231.11 174.769 230.607H186.393H193.345V237.04V258.235C193.345 258.584 193.653 258.868 194.043 258.868H207.897H214.135V259.663C211.669 265.009 209.69 270.622 208.246 276.454H173.95V232.132V232.124ZM175.467 229.35C175.913 228.547 176.375 227.752 176.838 226.957H185.071L188.681 229.35H177.568H175.467ZM177.592 225.708C178.119 224.823 178.663 223.947 179.215 223.079L183.181 225.708H177.592ZM179.904 221.976C180.731 220.695 181.575 219.437 182.443 218.188L182.703 218.366C182.703 218.366 182.711 218.367 182.711 218.375L186.75 221.262L190.701 224.085L190.733 224.11C190.733 224.11 190.741 224.11 190.741 224.118L192.964 225.708H185.525L179.896 221.976H179.904ZM183.181 217.117C184.382 215.406 185.623 213.727 186.896 212.072L190.23 214.692V215.381C190.23 215.39 190.23 215.398 190.23 215.406C190.23 215.414 190.23 215.422 190.23 215.43C190.23 215.446 190.238 215.463 190.238 215.471C190.238 215.487 190.246 215.511 190.255 215.527C190.255 215.536 190.255 215.544 190.255 215.544C190.255 215.56 190.263 215.568 190.271 215.584C190.279 215.6 190.287 215.625 190.295 215.641C190.295 215.649 190.303 215.657 190.303 215.657C190.311 215.673 190.319 215.682 190.328 215.69C190.344 215.706 190.352 215.722 190.36 215.738C190.368 215.746 190.368 215.755 190.376 215.755C190.384 215.763 190.392 215.763 190.392 215.771C190.392 215.771 190.401 215.779 190.401 215.787C190.417 215.803 190.433 215.819 190.449 215.836C190.457 215.836 190.457 215.844 190.465 215.852L190.676 216.014L194.278 218.813V225.042L191.56 223.104L187.61 220.281L187.594 220.273C187.586 220.265 187.578 220.257 187.561 220.248L183.554 217.385C183.554 217.385 183.546 217.385 183.538 217.377L183.522 217.361C183.522 217.361 183.522 217.361 183.514 217.361L183.173 217.117H183.181ZM187.707 211.042C188.535 209.987 189.378 208.949 190.238 207.919V210.952V213.021L187.707 211.034V211.042ZM191.625 206.28C197.417 199.531 203.825 193.318 210.769 187.745H221.42V201.089H212.237C211.848 201.089 211.54 201.364 211.54 201.713V213.491V214.749H191.617V206.28H191.625ZM212.359 186.496C213.665 185.482 214.987 184.484 216.334 183.511H231.592L233.985 187.153L235.858 190H225.127L222.685 186.771C222.677 186.763 222.669 186.755 222.661 186.747C222.644 186.723 222.62 186.698 222.596 186.682C222.588 186.674 222.58 186.666 222.571 186.666C222.563 186.658 222.555 186.65 222.547 186.65C222.531 186.634 222.515 186.625 222.49 186.609C222.474 186.601 222.45 186.593 222.425 186.577C222.409 186.569 222.385 186.561 222.369 186.552C222.344 186.544 222.32 186.536 222.304 186.536C222.288 186.528 222.263 186.52 222.239 186.52C222.206 186.512 222.174 186.512 222.142 186.512C222.133 186.512 222.117 186.512 222.109 186.512H212.367L212.359 186.496ZM218.078 182.253C222.32 179.276 226.725 176.526 231.283 174.02V182.253H218.078ZM232.671 173.266C233.895 172.608 235.128 171.96 236.378 171.335V188.337L235.169 186.504L232.671 182.708V173.266ZM238.908 170.11C250.646 164.545 263.26 160.53 276.498 158.332V177.062H253.282H238.917V170.102L238.908 170.11ZM287.822 198.314V205.428C287.343 205.493 286.857 205.558 286.378 205.631L277.885 177.613V160.027L287.822 198.314ZM285.007 205.842C284.034 205.996 283.052 206.167 282.087 206.353L272.418 178.327H276.66L285.007 205.842ZM280.732 206.629C280.424 206.694 280.108 206.751 279.799 206.824L277.844 201.519C277.844 201.51 277.836 201.502 277.836 201.502C277.828 201.478 277.82 201.462 277.804 201.437C277.796 201.421 277.788 201.405 277.771 201.389C277.755 201.373 277.747 201.356 277.731 201.34C277.715 201.324 277.698 201.308 277.69 201.291C277.674 201.275 277.658 201.267 277.642 201.251C277.625 201.235 277.609 201.218 277.593 201.21C277.577 201.194 277.552 201.186 277.536 201.178C277.52 201.17 277.496 201.153 277.479 201.145C277.463 201.137 277.439 201.129 277.415 201.121C277.39 201.113 277.366 201.105 277.35 201.105C277.333 201.105 277.309 201.097 277.285 201.097C277.26 201.097 277.236 201.089 277.204 201.089C277.196 201.089 277.187 201.089 277.179 201.089H272.515L263.106 178.327H270.95L280.716 206.629H280.732ZM278.453 207.132C278.266 207.18 278.072 207.221 277.885 207.262V205.591L278.453 207.132ZM276.498 207.61C265.304 210.482 254.913 215.349 245.714 221.814H212.927V202.346H244.376H252.333H257.046H264.752H272.036H276.482V207.602L276.498 207.61ZM243.97 223.071C241.91 224.588 239.914 226.186 237.992 227.865L233.482 223.071H243.97ZM236.994 228.741C235.656 229.942 234.35 231.175 233.076 232.448L223.204 223.071H231.657L236.994 228.741ZM231.218 234.371C230.586 235.044 229.961 235.717 229.353 236.407L227 234.371H231.218ZM228.493 237.396C228.104 237.851 227.714 238.305 227.333 238.767H222.085L219.732 236.942L217.064 234.874L216.407 234.363L216.317 234.29L215.879 233.949L215.701 233.811H224.348L226.644 235.798L228.493 237.396ZM226.303 240.025C225.97 240.438 225.638 240.86 225.313 241.274L224.705 240.803L223.699 240.025H226.303ZM224.518 242.312C223.894 243.131 223.293 243.967 222.701 244.811V240.893L224.47 242.264L224.526 242.304L224.518 242.312ZM221.695 246.263C221.428 246.652 221.168 247.049 220.909 247.447L220.86 247.414L219.165 246.263H221.695ZM220.203 248.534C219.594 249.499 219.002 250.473 218.418 251.462L210.745 246.684V242.109L213.494 243.975L216.674 246.133L219.732 248.217L220.203 248.542V248.534ZM217.777 252.582C216.837 254.236 215.944 255.932 215.101 257.651H215.084C215.06 257.643 215.044 257.635 215.019 257.635C214.995 257.635 214.979 257.627 214.955 257.619C214.93 257.619 214.906 257.611 214.873 257.611C214.857 257.611 214.841 257.603 214.833 257.603H210.745V248.201L217.769 252.582H217.777ZM207.954 277.695C207.605 279.196 207.289 280.713 207.013 282.246H195.77L194.343 281.873L190.449 280.867L184.925 279.439L179.247 277.971L178.209 277.703H207.946L207.954 277.695ZM206.794 283.495C206.713 284.006 206.624 284.517 206.551 285.028L205.44 284.744L200.621 283.495H206.794ZM228.079 193.885L228.809 194.851L230.505 197.09H240.531L238.868 194.567L236.678 191.241H226.068L228.071 193.885H228.079ZM240.06 193.918L241.058 195.435V183.859L238.933 180.25L238.852 180.112L237.765 178.262V190.446L240.052 193.926L240.06 193.918ZM230.561 199.385L229.564 198.071V198.063L227.025 194.713L224.648 191.574L222.799 189.124V201.072H231.851L230.578 199.393L230.561 199.377V199.385ZM254.337 178.319L265.215 201.08H271.047L261.637 178.319H254.337ZM231.721 198.696L233.23 200.683L233.53 201.08H243.159L241.358 198.339H231.462L231.721 198.688V198.696ZM239.371 178.319L240.158 179.658L242.364 183.405L244.546 187.12L246.631 190.657L248.602 194.015L250.468 197.195L252.236 200.204L252.747 201.08H255.935L243.508 178.319H239.379H239.371ZM242.445 197.544L244.53 200.707L244.773 201.08H245.325V191.103L242.445 186.212V197.536V197.544ZM260.047 201.08H263.706L252.828 178.319H245.049L257.476 201.08H260.047ZM246.704 201.08H251.173L246.704 193.464V201.08ZM218.54 237.656L215.604 235.369L213.381 233.641L211.02 231.808L210.015 231.029V236.261L213.024 238.41C213.048 238.427 213.065 238.443 213.081 238.451L216.293 240.747L219.351 242.929C219.4 242.953 219.44 242.985 219.473 243.018L221.298 244.324V239.806L218.524 237.648L218.54 237.656ZM209.358 241.16L206.835 239.449L203.331 237.064L201.538 235.847L197.888 233.365L196.038 232.108L194.748 231.232V236.707L209.366 245.816V241.168L209.358 241.16ZM213.689 242.531L217.315 244.997H220L218.564 243.967H218.556L215.449 241.744L212.229 239.449L209.082 237.202H205.845L206.64 237.745L210.485 240.357L213.705 242.547L213.689 242.531ZM194.74 257.595H205.253L194.74 252.233V257.595ZM204.288 226.584L201.019 224.037L199.38 222.755L198.277 221.895L195.681 219.875V226.016L199.104 228.466C199.137 228.482 199.161 228.506 199.185 228.53L202.787 231.102C202.787 231.102 202.787 231.102 202.795 231.11L206.283 233.6C206.291 233.608 206.299 233.616 206.316 233.616L206.332 233.625L208.644 235.271V229.95L207.476 229.041L207.451 229.025L204.304 226.576L204.288 226.584ZM218.816 229.009L216.188 226.738H206.608L209.349 228.863L210.355 229.642L213.097 231.775L214.087 232.546H222.896L221.533 231.37L218.816 229.009ZM209.349 257.595V247.333L194.732 238.224V250.789L208.076 257.586H209.349V257.595ZM211.531 220.922V215.99H192.793L195.008 217.709L198.52 220.435L201.911 223.071L202.803 223.761L204.993 225.464H214.744L213.056 224.004L213.024 223.98L211.75 222.877C211.75 222.877 211.75 222.877 211.742 222.868C211.726 222.852 211.702 222.828 211.686 222.804C211.677 222.795 211.661 222.779 211.653 222.771C211.637 222.755 211.629 222.731 211.621 222.706C211.613 222.69 211.604 222.674 211.588 222.658C211.58 222.641 211.58 222.625 211.572 222.609C211.564 222.585 211.556 222.568 211.548 222.544C211.548 222.528 211.548 222.512 211.54 222.495C211.54 222.471 211.531 222.447 211.531 222.414C211.531 222.414 211.531 222.414 211.531 222.406V220.897V220.922ZM191.025 229.333H194.035C194.043 229.333 194.043 229.333 194.051 229.333C194.075 229.333 194.099 229.333 194.124 229.342C194.148 229.342 194.164 229.342 194.189 229.35C194.205 229.35 194.229 229.358 194.254 229.366C194.278 229.374 194.302 229.382 194.318 229.39C194.335 229.398 194.351 229.406 194.367 229.415C194.391 229.423 194.416 229.439 194.432 229.447C194.432 229.447 194.44 229.455 194.448 229.455L198.61 232.278L198.707 232.343L200.564 233.608L202.357 234.825L202.665 235.036L203.971 235.92H207.305L205.464 234.606L201.935 232.091C201.935 232.091 201.935 232.091 201.927 232.091L198.293 229.496L194.732 226.957H187.432L191.041 229.35L191.025 229.333ZM213.949 223.055L216.885 225.602L216.942 225.651L219.359 227.744L225.548 233.105H231.859L221.282 223.055H213.957H213.949ZM384.927 207.513H382.656C382.274 207.513 381.966 207.229 381.966 206.88V189.14H377.034H373.351H368.347H367.251V215.673H400.161V210.595V207.513H384.935H384.927ZM315.969 160.879L314.753 167.141V171.189L315.969 165.381V160.879ZM320.561 190.633L321.283 188.126L321.404 187.688L322.451 184.078L322.645 183.405L323.432 180.672H317.219L314.907 190.633H320.552H320.561ZM317.576 200.975L317.795 200.221L317.932 199.734L318.857 196.522L319.044 195.865L319.62 193.861L320.179 191.906H314.607L312.506 200.991H317.559L317.576 200.975ZM315.961 172.138L314.745 177.946V185.222L315.961 179.982V172.138ZM365.848 190.852L356.844 204.877V208.235L365.848 194.948V190.86V190.852ZM356.844 188.386L361.249 180.672H356.844V188.386ZM399.333 229.982L397.686 231.224H403.405L412.085 225.132H405.79L402.602 227.533L399.349 229.982H399.333ZM313.374 174.312L312.368 179.503V182.643L313.374 177.832V174.312ZM313.374 184.589L312.368 189.4V195.556L313.374 191.217V184.589ZM401.88 238.986H394.612L388.342 243.383H395.058L401.88 238.986ZM404.565 241.704L407.664 239.822L409.027 238.994H404.265L397.443 243.391H401.783L404.557 241.712L404.565 241.704ZM412.628 239.765V238.313L411.703 238.881L408.443 240.86L405.344 242.742L404.135 243.472H412.636V239.757L412.628 239.765ZM387.815 237.023L389.429 235.807L392.308 233.641H392.317L395.058 231.58V226.146L387.798 232.075V237.04L387.815 237.023ZM421.981 235.433L417.649 237.981V243.488H421.981V235.442V235.433ZM380.295 242.677L381.544 241.744C381.544 241.744 381.552 241.744 381.552 241.736L384.035 239.871L386.419 238.078V233.203L380.287 238.216V242.685L380.295 242.677ZM392.349 238.994H387.368L384.935 240.828L382.436 242.71C382.436 242.71 382.436 242.71 382.428 242.71L382.42 242.718L381.536 243.383H386.103L392.365 238.986L392.349 238.994ZM386.427 229.496L384.959 230.745L382.964 232.448L380.295 234.728V236.512L386.427 231.499V229.488V229.496ZM395.075 222.122L393.241 223.68L392.284 224.499L387.815 228.311V230.372L395.075 224.442V222.114V222.122ZM421.981 232.651L420.513 233.543L418.68 234.655L417.649 235.279V236.488L421.981 233.949V232.651ZM414.015 243.488H416.262V238.8L414.015 240.122V243.496V243.488ZM416.57 234.42L419.734 232.497H414.356L406.22 237.737H411.095L414.332 235.774L415.062 235.328L416.562 234.42H416.57ZM416.262 236.115L415.84 236.374L414.015 237.486V238.613L416.262 237.291V236.115ZM401.523 216.46C401.515 216.485 401.507 216.501 401.499 216.525C401.491 216.541 401.491 216.566 401.483 216.582C401.475 216.598 401.467 216.614 401.45 216.631C401.434 216.647 401.426 216.671 401.418 216.687C401.402 216.704 401.393 216.72 401.385 216.728C401.369 216.744 401.353 216.768 401.329 216.785C401.329 216.785 401.329 216.785 401.321 216.793L400.769 217.263L399.366 218.464L396.462 220.946V223.331L404.849 216.485V207.911L401.548 210.896V216.347V216.355V216.363C401.548 216.379 401.54 216.403 401.54 216.428C401.54 216.444 401.54 216.46 401.531 216.476L401.523 216.46ZM325.079 179.99L323.992 183.746L323.943 183.932L322.572 188.662L321.729 191.582L321.591 192.068V194.599L326.36 179.025V175.521L325.265 179.317L325.071 179.99H325.079ZM393.258 234.566C393.225 234.598 393.184 234.63 393.136 234.655L390.313 236.78L389.031 237.737H394.134L401.613 232.497H396.015L393.258 234.566ZM396.462 230.526L398.4 229.066C398.433 229.033 398.465 229.009 398.506 228.985L401.718 226.576L404.849 224.215V218.147L396.462 224.994V230.518V230.526ZM396.405 237.737H403.835L411.971 232.497H403.876L396.397 237.737H396.405ZM258.644 432.239L259.236 430.771H258.644V432.239ZM236.848 411.936H229.296L228.436 413.152L226.968 415.221L226.116 416.421H233.985L236.848 411.936ZM233.246 410.678H242.186V391.681H231.916L231.186 392.573L230.586 393.311L227.414 397.18L227.244 397.391L225.37 399.671L224.453 400.798L224.429 400.831L222.028 403.759L221.517 404.375L219.01 407.434C219.002 407.442 218.994 407.45 218.986 407.458C218.962 407.482 218.937 407.507 218.913 407.523C218.897 407.539 218.881 407.547 218.873 407.555C218.848 407.572 218.816 407.588 218.791 407.604C218.775 407.612 218.759 407.62 218.743 407.628C218.71 407.645 218.678 407.653 218.637 407.661C218.621 407.661 218.613 407.669 218.597 407.669C218.548 407.677 218.499 407.685 218.451 407.685H211.864V410.67H228.899H233.238L233.246 410.678ZM195.478 365.731L194.14 366.607L191.974 368.019L190.83 368.765H218.288V346.945H207.719V357.433C207.719 357.449 207.719 357.458 207.719 357.474C207.719 357.498 207.719 357.522 207.711 357.547C207.711 357.563 207.703 357.587 207.695 357.604C207.687 357.62 207.678 357.644 207.678 357.66C207.67 357.677 207.662 357.701 207.646 357.717C207.63 357.733 207.622 357.75 207.614 357.766C207.597 357.782 207.581 357.798 207.573 357.814C207.557 357.831 207.549 357.847 207.532 357.863C207.516 357.879 207.492 357.896 207.467 357.912C207.451 357.92 207.443 357.928 207.435 357.936L202.763 360.986L195.487 365.723L195.478 365.731ZM196.241 371.588L198.431 370.014H188.9L188.665 370.169L186.491 371.588H196.241ZM195.276 318.797H195.268L187.975 320.776V369.065L188.275 368.871L191.163 366.989L193.329 365.577L194.667 364.701L201.651 360.151V317.061L195.276 318.789V318.797ZM216.269 374.346H200.524L195.43 378.175H211.937L216.269 374.346ZM223.172 396.937L219.14 401.626V405.162L223.172 400.247V396.937ZM220.446 376.025C220.454 376.017 220.462 376.009 220.471 375.993L220.957 375.538L222.223 374.346H218.24L213.908 378.175H218.151L220.446 376.025ZM223.172 375.271L221.971 376.398C221.955 376.415 221.947 376.423 221.931 376.439L221.452 376.885L219.14 379.051V382.831L223.172 378.824V375.279V375.271ZM193.937 373.219L194.464 372.845L194.481 372.837H184.552L181.421 374.873H191.625L193.937 373.219ZM193.256 378.167L198.35 374.338H194.61L192.299 375.993L189.265 378.167H193.256ZM180.691 373.803L186.58 369.966V321.15L180.691 322.748V373.803ZM223.172 380.681L219.14 384.688V399.573L223.172 394.885V380.681ZM227.552 364.352H225.889L223.521 366.364L221.712 367.905H223.537L227.544 364.361L227.552 364.352ZM199.007 371.182L198.48 371.564L196.436 373.024L196.363 373.081H200.013L204.101 370.006H200.646L198.999 371.191L199.007 371.182ZM230.075 386.838L233.806 382.49V370.087L230.075 373.803V386.838ZM222.125 369.155H220.243L219.44 369.836C219.424 369.852 219.408 369.852 219.392 369.868C219.375 369.885 219.359 369.893 219.343 369.909C219.319 369.925 219.302 369.933 219.278 369.941C219.262 369.949 219.246 369.958 219.229 369.966C219.205 369.974 219.173 369.982 219.148 369.99C219.132 369.99 219.116 369.998 219.1 370.006C219.051 370.014 219.01 370.023 218.962 370.023H206.275L202.187 373.097H217.68L222.117 369.171L222.125 369.155ZM250.492 400.928V399.882L250.476 399.914L250.362 400.101L249.397 401.723H250.492V400.936V400.928ZM250.492 405.446V402.964H248.642L247.937 404.14L246.98 405.746L246.809 406.038L245.852 407.628L245.446 408.302H249.486L250.5 406.476V405.446H250.492ZM250.492 396.029L243.564 407.215V408.813L244.635 407.028L244.749 406.841L245.592 405.438L245.763 405.154L246.095 404.603L247.596 402.096L247.628 402.047L248.472 400.636L249.153 399.508L250.5 397.262V396.045L250.492 396.029ZM223.764 372.886L226.165 370.631C226.165 370.631 226.165 370.631 226.173 370.631L226.562 370.258L227.73 369.163H224.088L219.651 373.089H223.553L223.756 372.902L223.764 372.886ZM232.638 421.013H242.445L244.303 417.654H234.78L232.638 421.013ZM250.492 419.285V417.654H245.852L243.994 421.013H250.492V419.285ZM238.438 411.903L235.583 416.389H245L248.788 409.543H244.692L244.505 409.851L243.475 411.571C243.475 411.579 243.467 411.579 243.459 411.587C243.435 411.627 243.402 411.668 243.37 411.7C243.37 411.7 243.37 411.708 243.362 411.708C243.321 411.741 243.281 411.773 243.232 411.798C243.232 411.798 243.224 411.806 243.216 411.806C243.208 411.814 243.199 411.814 243.191 411.814C243.159 411.83 243.11 411.846 243.078 411.863C243.07 411.863 243.062 411.871 243.053 411.871C243.045 411.871 243.037 411.871 243.037 411.871C242.98 411.879 242.932 411.887 242.867 411.887H238.438V411.903ZM250.492 389.839V385.329L243.564 395.436V404.627L250.492 393.441V389.831V389.839ZM250.492 415.586V409.543H250.338L246.55 416.389H250.492V415.586ZM231.008 390.642L231.689 389.807L231.73 389.758L231.965 389.466L233.806 387.219V384.51L230.075 388.858V391.778L230.326 391.47L231.008 390.634V390.642ZM235.193 385.532L236.369 384.088L236.548 383.869L238.057 382.036L238.511 381.476V379.035L235.185 382.904V385.54L235.193 385.532ZM226.522 396.118L228.688 393.473V390.472L224.559 395.282V398.511L226.295 396.394L226.522 396.11V396.118ZM228.688 375.165L224.559 379.278V393.246L228.688 388.436V375.165ZM228.688 370.063L227.584 371.101C227.576 371.109 227.568 371.118 227.552 371.126L227.195 371.458C227.179 371.475 227.163 371.491 227.138 371.507L224.794 373.713C224.778 373.73 224.753 373.754 224.729 373.77L224.551 373.94V377.412L228.68 373.3V370.063H228.688ZM432.713 317.288L436.006 318.035V316.161L432.388 315.423L432.356 315.415L429.192 314.766V316.494L431.577 317.037L432.721 317.297L432.713 317.288ZM428.048 321.628L414.891 318.27H397.297L408.232 321.628H428.048ZM395.813 341.721L399.422 343.611L402.967 345.468L407.948 348.08C407.956 348.08 407.964 348.089 407.964 348.089C407.98 348.105 408.005 348.113 408.021 348.129C408.037 348.137 408.053 348.153 408.069 348.162C408.086 348.178 408.102 348.194 408.118 348.21C408.134 348.226 408.151 348.243 408.159 348.259C408.175 348.275 408.183 348.291 408.191 348.308C408.199 348.324 408.215 348.34 408.224 348.364C408.232 348.381 408.24 348.405 408.248 348.421C408.256 348.437 408.264 348.462 408.264 348.478C408.272 348.494 408.272 348.518 408.28 348.535C408.28 348.559 408.288 348.583 408.288 348.608C408.288 348.616 408.288 348.624 408.288 348.624V354.034L419.896 360.67V352.761L397.889 341.721H395.813ZM389.396 372.334L390.248 373.056H393.33L393.176 372.926L392.446 372.334H389.404H389.396ZM428.113 351.771L406.561 341.721H400.745L420.756 351.771H428.113ZM408.288 358.65V362.584L419.896 370.031V362.17L408.288 355.535V358.65ZM349.568 405.13V410.8C349.568 411.149 349.26 411.425 348.878 411.425H348.059L350.89 417.233H356.09L349.576 405.13H349.568ZM341.765 411.425L349.738 429.651V428.816L341.902 411.425H341.765ZM345.098 411.425H343.403L349.746 425.498V417.995L346.542 411.425H345.098ZM337.238 412.057L336.979 411.425H316.659C316.618 411.425 316.57 411.425 316.529 411.416C316.513 411.416 316.505 411.408 316.489 411.408C316.456 411.4 316.432 411.392 316.407 411.384C316.391 411.384 316.375 411.376 316.359 411.368C316.343 411.36 316.334 411.36 316.318 411.352C316.31 411.343 316.302 411.335 316.286 411.335C316.27 411.327 316.253 411.319 316.245 411.311C316.229 411.295 316.205 411.279 316.18 411.262C316.172 411.254 316.156 411.246 316.148 411.23C316.132 411.214 316.107 411.189 316.091 411.165C316.083 411.157 316.075 411.149 316.067 411.133C316.05 411.108 316.034 411.076 316.018 411.043C316.018 411.035 316.01 411.035 316.01 411.027C315.994 410.995 315.977 410.962 315.969 410.922V410.913L315.58 409.324L315.142 407.555L314.469 404.822H314.209L314.598 406.485C314.598 406.501 314.607 406.517 314.615 406.541L315.191 409.023L315.199 409.056L315.815 411.692C315.815 411.692 315.815 411.692 315.815 411.7L316.448 414.418C316.448 414.426 316.448 414.434 316.448 414.442L317.202 417.695H339.55L338.35 414.775L337.222 412.049L337.238 412.057ZM315.101 414.702C315.101 414.702 315.101 414.702 315.101 414.694L314.469 411.968C314.469 411.968 314.469 411.968 314.469 411.96L314.055 410.183V427.697L314.623 430.633L315.207 433.618L315.831 436.814L315.969 437.536V418.401L315.11 414.702H315.101ZM392.917 375.344L395.261 377.339L395.431 377.485H398.773L398.149 376.974L396.291 375.465L394.864 374.305H391.708L392.909 375.336L392.917 375.344ZM397.711 379.432L398.757 380.324L399.714 381.144L400.266 381.614C400.266 381.614 400.274 381.614 400.274 381.622C400.298 381.638 400.315 381.655 400.331 381.679C400.347 381.695 400.355 381.703 400.363 381.72C400.38 381.736 400.388 381.76 400.396 381.776C400.404 381.793 400.42 381.809 400.428 381.825C400.436 381.841 400.444 381.857 400.453 381.882C400.461 381.898 400.469 381.922 400.469 381.947C400.469 381.963 400.477 381.979 400.477 381.995C400.477 382.02 400.485 382.044 400.485 382.068V382.076V382.953H405.498L404.411 382.068L402.205 380.284L400.315 378.751H396.9L397.711 379.44V379.432ZM381.398 385.045L383.54 387.309L384.546 388.371V382.312L382.501 380.316L380.368 378.232L379.524 377.412V383.074L381.406 385.062L381.398 385.045ZM369.304 383.918V389.442H383.734L382.493 388.128L380.352 385.865L378.519 383.918H369.312H369.304ZM412.588 314.028H403.381L415.062 317.013H425.753L424.35 316.696L421.648 316.08L420.505 315.82L416.765 314.969L413.131 314.141L412.588 314.019V314.028ZM420.845 314.603L421.989 314.863L424.69 315.471L427.773 316.169V314.474L424.366 313.776C424.366 313.776 424.366 313.776 424.358 313.776C424.358 313.776 424.358 313.776 424.35 313.776L420.513 312.989H420.496H420.488L416.781 312.227C416.781 312.227 416.781 312.227 416.773 312.227H416.757L413.999 311.659V313.07L417.114 313.776L420.853 314.628L420.845 314.603ZM376.337 381.622L374.471 379.643L372.727 377.802C372.694 377.777 372.678 377.753 372.646 377.72L370.991 375.968L369.385 374.273L368.079 372.894H364.307L364.818 373.478L366.31 375.173L367.892 376.958L369.141 378.369C369.15 378.378 369.15 378.386 369.158 378.394C369.174 378.41 369.19 378.426 369.198 378.451C369.206 378.467 369.214 378.483 369.231 378.499C369.239 378.515 369.247 378.54 369.255 378.556C369.263 378.572 369.271 378.597 369.271 378.613C369.279 378.629 369.279 378.653 369.287 378.67C369.287 378.694 369.296 378.718 369.296 378.734C369.296 378.743 369.296 378.751 369.296 378.759V382.652H377.31L376.328 381.614L376.337 381.622ZM362.198 401.423V398.235H360.989V399.557L362.198 401.423ZM361.744 417.224L350.712 398.227H349.552V402.25L357.607 417.224H361.735H361.744ZM371.031 417.224L362.612 404.302C362.595 404.294 362.587 404.286 362.571 404.286C362.555 404.278 362.539 404.27 362.53 404.27C362.49 404.246 362.449 404.221 362.425 404.197C362.417 404.189 362.409 404.189 362.409 404.181C362.368 404.148 362.336 404.108 362.303 404.067C362.303 404.059 362.295 404.059 362.295 404.051L358.515 398.235H352.269L363.301 417.233H371.023L371.031 417.224ZM374.471 372.464L374.333 372.326H371.729C371.68 372.326 371.632 372.326 371.591 372.31H371.583C371.542 372.302 371.502 372.294 371.461 372.278C371.461 372.278 371.461 372.278 371.453 372.278C371.453 372.278 371.453 372.278 371.445 372.278C371.437 372.269 371.429 372.269 371.421 372.261C371.388 372.245 371.364 372.237 371.34 372.221C371.324 372.213 371.315 372.205 371.299 372.188C371.275 372.172 371.25 372.156 371.226 372.132C371.226 372.132 371.218 372.123 371.21 372.123L370.269 371.174L369.393 370.29L369.077 369.974V372.026L370.431 373.462C370.431 373.462 370.431 373.462 370.439 373.462L372.045 375.157L373.733 376.942C373.733 376.942 373.733 376.942 373.733 376.95L375.509 378.832L377.375 380.803L378.113 381.59V376.041L376.337 374.314L374.511 372.529C374.495 372.513 374.479 372.497 374.463 372.48L374.471 372.464ZM389.486 374.135L388.05 372.91L387.368 372.326H376.231L377.342 373.413C377.359 373.429 377.383 373.446 377.399 373.47L379.135 375.165H390.694L389.494 374.135H389.486ZM376.71 417.224L367.779 404.351H364.266L372.646 417.224H376.71ZM376.044 408.707L378.332 411.871L379.451 413.42V404.351H372.897L375.29 407.661L376.044 408.707ZM396.656 380.259L394.669 378.564L392.787 376.958L392.154 376.415H380.4L381.341 377.339C381.358 377.347 381.366 377.364 381.374 377.372L383.467 379.416C383.499 379.44 383.515 379.465 383.54 379.489L385.527 381.428H398.027L396.648 380.251L396.656 380.259Z" fill="#F29100"/>
</svg>
